<mxfile host="app.diagrams.net" modified="2023-10-21T11:35:29.069Z" agent="Mozilla/5.0 (Windows NT 10.0; Win64; x64) AppleWebKit/537.36 (KHTML, like Gecko) Chrome/118.0.0.0 Safari/537.36" etag="Ez2kCAfITMos0pb9gyYP" version="22.0.6" type="google" pages="4">
  <diagram id="n1ElUr0DgXKzG2nxO4ar" name="activity">
    <mxGraphModel grid="1" page="1" gridSize="10" guides="1" tooltips="1" connect="1" arrows="1" fold="1" pageScale="1" pageWidth="827" pageHeight="1169" math="0" shadow="0">
      <root>
        <mxCell id="0" />
        <mxCell id="1" parent="0" />
        <mxCell id="2nvxnJHDYDKnR72fFEk4-1" value="Printing Log Module" style="swimlane;html=1;childLayout=stackLayout;resizeParent=1;resizeParentMax=0;startSize=20;whiteSpace=wrap;rounded=0;shadow=0;glass=0;swimlaneLine=1;fillStyle=hatch;fillColor=#FFFFFF;" vertex="1" parent="1">
          <mxGeometry x="260" y="104" width="1070" height="860" as="geometry" />
        </mxCell>
        <mxCell id="2nvxnJHDYDKnR72fFEk4-2" value="Student" style="swimlane;html=1;startSize=20;fillColor=#d5e8d4;strokeColor=#82b366;" vertex="1" parent="2nvxnJHDYDKnR72fFEk4-1">
          <mxGeometry y="20" width="260" height="840" as="geometry" />
        </mxCell>
        <mxCell id="2nvxnJHDYDKnR72fFEk4-12" style="edgeStyle=orthogonalEdgeStyle;rounded=0;orthogonalLoop=1;jettySize=auto;html=1;entryX=0.5;entryY=0;entryDx=0;entryDy=0;exitX=0.5;exitY=1;exitDx=0;exitDy=0;endArrow=openThin;endFill=0;" edge="1" parent="2nvxnJHDYDKnR72fFEk4-2" source="2nvxnJHDYDKnR72fFEk4-5" target="2nvxnJHDYDKnR72fFEk4-60">
          <mxGeometry relative="1" as="geometry">
            <mxPoint x="71" y="80" as="sourcePoint" />
            <mxPoint x="71" y="110" as="targetPoint" />
          </mxGeometry>
        </mxCell>
        <mxCell id="2nvxnJHDYDKnR72fFEk4-5" value="" style="ellipse;html=1;shape=startState;fillColor=#000000;strokeColor=#000000;" vertex="1" parent="2nvxnJHDYDKnR72fFEk4-2">
          <mxGeometry x="56" y="40" width="30" height="30" as="geometry" />
        </mxCell>
        <mxCell id="2nvxnJHDYDKnR72fFEk4-19" value="&lt;font style=&quot;font-size: 11px;&quot;&gt;View History&lt;/font&gt;&amp;nbsp;+ Summary for printed pages" style="rounded=1;arcSize=10;whiteSpace=wrap;html=1;align=center;fontSize=11;fillColor=#d5e8d4;strokeColor=#82b366;" vertex="1" parent="2nvxnJHDYDKnR72fFEk4-2">
          <mxGeometry x="21" y="546" width="100" height="40" as="geometry" />
        </mxCell>
        <mxCell id="2nvxnJHDYDKnR72fFEk4-60" value="Click on &quot;History&quot;" style="rounded=1;arcSize=10;whiteSpace=wrap;html=1;align=center;fillColor=#d5e8d4;strokeColor=#82b366;" vertex="1" parent="2nvxnJHDYDKnR72fFEk4-2">
          <mxGeometry x="21" y="216" width="100" height="40" as="geometry" />
        </mxCell>
        <mxCell id="2nvxnJHDYDKnR72fFEk4-3" value="System" style="swimlane;html=1;startSize=20;fillColor=#fff2cc;strokeColor=#d6b656;" vertex="1" parent="2nvxnJHDYDKnR72fFEk4-1">
          <mxGeometry x="260" y="20" width="210" height="840" as="geometry" />
        </mxCell>
        <mxCell id="2nvxnJHDYDKnR72fFEk4-58" value="Database" style="rounded=1;arcSize=10;whiteSpace=wrap;html=1;align=center;fillColor=#fff2cc;strokeColor=#d6b656;" vertex="1" parent="2nvxnJHDYDKnR72fFEk4-3">
          <mxGeometry x="55" y="216" width="100" height="40" as="geometry" />
        </mxCell>
        <mxCell id="2nvxnJHDYDKnR72fFEk4-112" value="" style="ellipse;html=1;shape=endState;fillColor=#000000;strokeColor=#000000;" vertex="1" parent="2nvxnJHDYDKnR72fFEk4-3">
          <mxGeometry x="85" y="776" width="40" height="40" as="geometry" />
        </mxCell>
        <mxCell id="PSMdSgqibQbK2gK1wQie-3" value="" style="strokeWidth=2;html=1;shape=mxgraph.flowchart.decision;whiteSpace=wrap;fillColor=#fff2cc;strokeColor=#d6b656;" vertex="1" parent="2nvxnJHDYDKnR72fFEk4-3">
          <mxGeometry x="85" y="296" width="40" height="40" as="geometry" />
        </mxCell>
        <mxCell id="PSMdSgqibQbK2gK1wQie-4" style="edgeStyle=orthogonalEdgeStyle;rounded=0;orthogonalLoop=1;jettySize=auto;html=1;entryX=0.5;entryY=0;entryDx=0;entryDy=0;entryPerimeter=0;endArrow=openThin;endFill=0;" edge="1" parent="2nvxnJHDYDKnR72fFEk4-3" source="2nvxnJHDYDKnR72fFEk4-58" target="PSMdSgqibQbK2gK1wQie-3">
          <mxGeometry relative="1" as="geometry" />
        </mxCell>
        <mxCell id="PSMdSgqibQbK2gK1wQie-7" value="Student" style="text;html=1;align=center;verticalAlign=middle;resizable=0;points=[];autosize=1;strokeColor=none;fillColor=none;" vertex="1" parent="2nvxnJHDYDKnR72fFEk4-3">
          <mxGeometry x="29" y="286" width="60" height="30" as="geometry" />
        </mxCell>
        <mxCell id="H-9CupvR6FkV16RHqmsr-25" style="edgeStyle=orthogonalEdgeStyle;rounded=0;orthogonalLoop=1;jettySize=auto;html=1;entryX=0.5;entryY=1;entryDx=0;entryDy=0;" edge="1" parent="2nvxnJHDYDKnR72fFEk4-3" source="56FH4kdp573uSBIBM0mi-44" target="H-9CupvR6FkV16RHqmsr-26">
          <mxGeometry relative="1" as="geometry">
            <mxPoint x="105" y="476" as="targetPoint" />
          </mxGeometry>
        </mxCell>
        <mxCell id="56FH4kdp573uSBIBM0mi-44" value="Generate report periodically" style="rounded=1;arcSize=10;whiteSpace=wrap;html=1;align=center;fillColor=#fff2cc;strokeColor=#d6b656;" vertex="1" parent="2nvxnJHDYDKnR72fFEk4-3">
          <mxGeometry x="52" y="536" width="106" height="41" as="geometry" />
        </mxCell>
        <mxCell id="H-9CupvR6FkV16RHqmsr-27" style="edgeStyle=orthogonalEdgeStyle;rounded=0;orthogonalLoop=1;jettySize=auto;html=1;exitX=0.5;exitY=0;exitDx=0;exitDy=0;entryX=0;entryY=1;entryDx=0;entryDy=0;endArrow=openThin;endFill=0;" edge="1" parent="2nvxnJHDYDKnR72fFEk4-3" source="H-9CupvR6FkV16RHqmsr-26" target="2nvxnJHDYDKnR72fFEk4-58">
          <mxGeometry relative="1" as="geometry">
            <Array as="points">
              <mxPoint x="105" y="396" />
              <mxPoint x="20" y="396" />
              <mxPoint x="20" y="256" />
            </Array>
          </mxGeometry>
        </mxCell>
        <mxCell id="H-9CupvR6FkV16RHqmsr-26" value="Save reports to database" style="rounded=1;arcSize=10;whiteSpace=wrap;html=1;align=center;fillColor=#fff2cc;strokeColor=#d6b656;" vertex="1" parent="2nvxnJHDYDKnR72fFEk4-3">
          <mxGeometry x="52" y="436" width="106" height="41" as="geometry" />
        </mxCell>
        <mxCell id="2nvxnJHDYDKnR72fFEk4-37" value="SPSO" style="swimlane;html=1;startSize=20;fillColor=#dae8fc;strokeColor=#6c8ebf;" vertex="1" parent="2nvxnJHDYDKnR72fFEk4-1">
          <mxGeometry x="470" y="20" width="600" height="840" as="geometry" />
        </mxCell>
        <mxCell id="2nvxnJHDYDKnR72fFEk4-49" value="" style="ellipse;html=1;shape=startState;fillColor=#000000;strokeColor=#000000;" vertex="1" parent="2nvxnJHDYDKnR72fFEk4-37">
          <mxGeometry x="285" y="40" width="30" height="30" as="geometry" />
        </mxCell>
        <mxCell id="2nvxnJHDYDKnR72fFEk4-55" value="Select one/some/all student(s)" style="rounded=1;arcSize=10;whiteSpace=wrap;html=1;align=center;fillColor=#dae8fc;strokeColor=#6c8ebf;" vertex="1" parent="2nvxnJHDYDKnR72fFEk4-37">
          <mxGeometry x="340" y="456" width="100" height="40" as="geometry" />
        </mxCell>
        <mxCell id="2nvxnJHDYDKnR72fFEk4-56" value="Choose one/some/all printer(s)" style="rounded=1;arcSize=10;whiteSpace=wrap;html=1;align=center;fillColor=#dae8fc;strokeColor=#6c8ebf;" vertex="1" parent="2nvxnJHDYDKnR72fFEk4-37">
          <mxGeometry x="460" y="456" width="100" height="40" as="geometry" />
        </mxCell>
        <mxCell id="2nvxnJHDYDKnR72fFEk4-52" value="View printing history" style="rounded=1;arcSize=10;whiteSpace=wrap;html=1;align=center;fillColor=#dae8fc;strokeColor=#6c8ebf;" vertex="1" parent="2nvxnJHDYDKnR72fFEk4-37">
          <mxGeometry x="395" y="615.5" width="110" height="40" as="geometry" />
        </mxCell>
        <mxCell id="2nvxnJHDYDKnR72fFEk4-88" value="Click on &quot;Report&quot;" style="rounded=1;arcSize=10;whiteSpace=wrap;html=1;align=center;fillColor=#dae8fc;strokeColor=#6c8ebf;" vertex="1" parent="2nvxnJHDYDKnR72fFEk4-37">
          <mxGeometry x="105" y="107" width="100" height="40" as="geometry" />
        </mxCell>
        <mxCell id="2nvxnJHDYDKnR72fFEk4-102" value="Set date and &lt;br&gt;other options for &lt;br&gt;auto generation" style="rounded=1;arcSize=10;whiteSpace=wrap;html=1;align=center;fillColor=#dae8fc;strokeColor=#6c8ebf;" vertex="1" parent="2nvxnJHDYDKnR72fFEk4-37">
          <mxGeometry x="39" y="536" width="106" height="41" as="geometry" />
        </mxCell>
        <mxCell id="2nvxnJHDYDKnR72fFEk4-109" value="" style="shape=line;html=1;strokeWidth=6;strokeColor=#000000;fontColor=#000000;" vertex="1" parent="2nvxnJHDYDKnR72fFEk4-37">
          <mxGeometry x="60" y="716" width="400" height="10" as="geometry" />
        </mxCell>
        <mxCell id="56FH4kdp573uSBIBM0mi-5" style="edgeStyle=orthogonalEdgeStyle;rounded=0;orthogonalLoop=1;jettySize=auto;html=1;exitX=1;exitY=0.5;exitDx=0;exitDy=0;exitPerimeter=0;entryX=0;entryY=0.5;entryDx=0;entryDy=0;endArrow=openThin;endFill=0;" edge="1" parent="2nvxnJHDYDKnR72fFEk4-37" source="56FH4kdp573uSBIBM0mi-1" target="56FH4kdp573uSBIBM0mi-4">
          <mxGeometry relative="1" as="geometry" />
        </mxCell>
        <mxCell id="H-9CupvR6FkV16RHqmsr-7" style="edgeStyle=orthogonalEdgeStyle;rounded=0;orthogonalLoop=1;jettySize=auto;html=1;exitX=0;exitY=0.5;exitDx=0;exitDy=0;exitPerimeter=0;entryX=1;entryY=0.5;entryDx=0;entryDy=0;endArrow=openThin;endFill=0;" edge="1" parent="2nvxnJHDYDKnR72fFEk4-37" source="56FH4kdp573uSBIBM0mi-1" target="2nvxnJHDYDKnR72fFEk4-88">
          <mxGeometry relative="1" as="geometry" />
        </mxCell>
        <mxCell id="56FH4kdp573uSBIBM0mi-1" value="" style="strokeWidth=2;html=1;shape=mxgraph.flowchart.decision;whiteSpace=wrap;fillColor=#dae8fc;strokeColor=#6c8ebf;" vertex="1" parent="2nvxnJHDYDKnR72fFEk4-37">
          <mxGeometry x="280" y="107" width="40" height="40" as="geometry" />
        </mxCell>
        <mxCell id="56FH4kdp573uSBIBM0mi-4" value="Click on &quot;History&quot;" style="rounded=1;arcSize=10;whiteSpace=wrap;html=1;align=center;fillColor=#dae8fc;strokeColor=#6c8ebf;" vertex="1" parent="2nvxnJHDYDKnR72fFEk4-37">
          <mxGeometry x="400" y="107" width="100" height="40" as="geometry" />
        </mxCell>
        <mxCell id="56FH4kdp573uSBIBM0mi-8" style="edgeStyle=orthogonalEdgeStyle;rounded=0;orthogonalLoop=1;jettySize=auto;html=1;exitX=0.25;exitY=0.5;exitDx=0;exitDy=0;exitPerimeter=0;entryX=0.5;entryY=0;entryDx=0;entryDy=0;endArrow=openThin;endFill=0;" edge="1" parent="2nvxnJHDYDKnR72fFEk4-37" source="56FH4kdp573uSBIBM0mi-21" target="2nvxnJHDYDKnR72fFEk4-55">
          <mxGeometry relative="1" as="geometry">
            <mxPoint x="294.75" y="291.5" as="sourcePoint" />
          </mxGeometry>
        </mxCell>
        <mxCell id="56FH4kdp573uSBIBM0mi-15" style="edgeStyle=orthogonalEdgeStyle;rounded=0;orthogonalLoop=1;jettySize=auto;html=1;entryX=0.5;entryY=0;entryDx=0;entryDy=0;endArrow=openThin;endFill=0;" edge="1" parent="2nvxnJHDYDKnR72fFEk4-37" source="56FH4kdp573uSBIBM0mi-10" target="2nvxnJHDYDKnR72fFEk4-52">
          <mxGeometry relative="1" as="geometry" />
        </mxCell>
        <mxCell id="56FH4kdp573uSBIBM0mi-10" value="" style="shape=line;html=1;strokeWidth=6;strokeColor=#000000;fontColor=#000000;" vertex="1" parent="2nvxnJHDYDKnR72fFEk4-37">
          <mxGeometry x="330.5" y="552" width="239" height="10" as="geometry" />
        </mxCell>
        <mxCell id="56FH4kdp573uSBIBM0mi-13" style="edgeStyle=orthogonalEdgeStyle;rounded=0;orthogonalLoop=1;jettySize=auto;html=1;exitX=0.5;exitY=1;exitDx=0;exitDy=0;entryX=0.25;entryY=0.5;entryDx=0;entryDy=0;entryPerimeter=0;endArrow=openThin;endFill=0;" edge="1" parent="2nvxnJHDYDKnR72fFEk4-37" source="2nvxnJHDYDKnR72fFEk4-55" target="56FH4kdp573uSBIBM0mi-10">
          <mxGeometry relative="1" as="geometry" />
        </mxCell>
        <mxCell id="56FH4kdp573uSBIBM0mi-16" style="edgeStyle=orthogonalEdgeStyle;rounded=0;orthogonalLoop=1;jettySize=auto;html=1;exitX=0.5;exitY=1;exitDx=0;exitDy=0;entryX=0.75;entryY=0.5;entryDx=0;entryDy=0;entryPerimeter=0;endArrow=openThin;endFill=0;" edge="1" parent="2nvxnJHDYDKnR72fFEk4-37" source="2nvxnJHDYDKnR72fFEk4-52" target="2nvxnJHDYDKnR72fFEk4-109">
          <mxGeometry relative="1" as="geometry" />
        </mxCell>
        <mxCell id="56FH4kdp573uSBIBM0mi-20" style="edgeStyle=orthogonalEdgeStyle;rounded=0;orthogonalLoop=1;jettySize=auto;html=1;exitX=0.5;exitY=1;exitDx=0;exitDy=0;entryX=0.75;entryY=0.5;entryDx=0;entryDy=0;entryPerimeter=0;endArrow=openThin;endFill=0;" edge="1" parent="2nvxnJHDYDKnR72fFEk4-37" source="2nvxnJHDYDKnR72fFEk4-56" target="56FH4kdp573uSBIBM0mi-10">
          <mxGeometry relative="1" as="geometry" />
        </mxCell>
        <mxCell id="56FH4kdp573uSBIBM0mi-25" style="edgeStyle=orthogonalEdgeStyle;rounded=0;orthogonalLoop=1;jettySize=auto;html=1;exitX=0.75;exitY=0.5;exitDx=0;exitDy=0;exitPerimeter=0;entryX=0.5;entryY=0;entryDx=0;entryDy=0;endArrow=openThin;endFill=0;" edge="1" parent="2nvxnJHDYDKnR72fFEk4-37" source="56FH4kdp573uSBIBM0mi-21" target="2nvxnJHDYDKnR72fFEk4-56">
          <mxGeometry relative="1" as="geometry" />
        </mxCell>
        <mxCell id="56FH4kdp573uSBIBM0mi-21" value="" style="shape=line;html=1;strokeWidth=6;strokeColor=#000000;fontColor=#000000;" vertex="1" parent="2nvxnJHDYDKnR72fFEk4-37">
          <mxGeometry x="330.5" y="401" width="239" height="10" as="geometry" />
        </mxCell>
        <mxCell id="56FH4kdp573uSBIBM0mi-29" value="History" style="text;html=1;align=center;verticalAlign=middle;resizable=0;points=[];autosize=1;strokeColor=none;fillColor=none;" vertex="1" parent="2nvxnJHDYDKnR72fFEk4-37">
          <mxGeometry x="310.25" y="105" width="60" height="30" as="geometry" />
        </mxCell>
        <mxCell id="56FH4kdp573uSBIBM0mi-31" value="Report" style="text;html=1;align=center;verticalAlign=middle;resizable=0;points=[];autosize=1;strokeColor=none;fillColor=none;" vertex="1" parent="2nvxnJHDYDKnR72fFEk4-37">
          <mxGeometry x="228" y="105" width="60" height="30" as="geometry" />
        </mxCell>
        <mxCell id="56FH4kdp573uSBIBM0mi-37" style="edgeStyle=orthogonalEdgeStyle;rounded=0;orthogonalLoop=1;jettySize=auto;html=1;exitX=0.25;exitY=0.5;exitDx=0;exitDy=0;exitPerimeter=0;entryX=0.5;entryY=0;entryDx=0;entryDy=0;endArrow=openThin;endFill=0;" edge="1" parent="2nvxnJHDYDKnR72fFEk4-37" source="56FH4kdp573uSBIBM0mi-34" target="2nvxnJHDYDKnR72fFEk4-102">
          <mxGeometry relative="1" as="geometry" />
        </mxCell>
        <mxCell id="56FH4kdp573uSBIBM0mi-38" style="edgeStyle=orthogonalEdgeStyle;rounded=0;orthogonalLoop=1;jettySize=auto;html=1;exitX=0.75;exitY=0.5;exitDx=0;exitDy=0;exitPerimeter=0;entryX=0.5;entryY=0;entryDx=0;entryDy=0;endArrow=openThin;endFill=0;" edge="1" parent="2nvxnJHDYDKnR72fFEk4-37" source="56FH4kdp573uSBIBM0mi-34" target="56FH4kdp573uSBIBM0mi-36">
          <mxGeometry relative="1" as="geometry" />
        </mxCell>
        <mxCell id="56FH4kdp573uSBIBM0mi-34" value="" style="shape=line;html=1;strokeWidth=6;strokeColor=#000000;fontColor=#000000;" vertex="1" parent="2nvxnJHDYDKnR72fFEk4-37">
          <mxGeometry x="27.75" y="471" width="254.5" height="10" as="geometry" />
        </mxCell>
        <mxCell id="56FH4kdp573uSBIBM0mi-36" value="Export manually" style="rounded=1;arcSize=10;whiteSpace=wrap;html=1;align=center;fillColor=#dae8fc;strokeColor=#6c8ebf;" vertex="1" parent="2nvxnJHDYDKnR72fFEk4-37">
          <mxGeometry x="168" y="534" width="100" height="40" as="geometry" />
        </mxCell>
        <mxCell id="56FH4kdp573uSBIBM0mi-40" style="edgeStyle=orthogonalEdgeStyle;rounded=0;orthogonalLoop=1;jettySize=auto;html=1;exitX=0.5;exitY=1;exitDx=0;exitDy=0;" edge="1" parent="2nvxnJHDYDKnR72fFEk4-37" source="56FH4kdp573uSBIBM0mi-36" target="56FH4kdp573uSBIBM0mi-36">
          <mxGeometry relative="1" as="geometry" />
        </mxCell>
        <mxCell id="56FH4kdp573uSBIBM0mi-41" value="" style="shape=line;html=1;strokeWidth=6;strokeColor=#000000;fontColor=#000000;" vertex="1" parent="2nvxnJHDYDKnR72fFEk4-37">
          <mxGeometry x="27.75" y="630.5" width="254.5" height="10" as="geometry" />
        </mxCell>
        <mxCell id="56FH4kdp573uSBIBM0mi-42" style="edgeStyle=orthogonalEdgeStyle;rounded=0;orthogonalLoop=1;jettySize=auto;html=1;exitX=0.5;exitY=1;exitDx=0;exitDy=0;entryX=0.25;entryY=0.5;entryDx=0;entryDy=0;entryPerimeter=0;endArrow=openThin;endFill=0;" edge="1" parent="2nvxnJHDYDKnR72fFEk4-37" source="2nvxnJHDYDKnR72fFEk4-102" target="56FH4kdp573uSBIBM0mi-41">
          <mxGeometry relative="1" as="geometry" />
        </mxCell>
        <mxCell id="56FH4kdp573uSBIBM0mi-43" style="edgeStyle=orthogonalEdgeStyle;rounded=0;orthogonalLoop=1;jettySize=auto;html=1;exitX=0.5;exitY=1;exitDx=0;exitDy=0;entryX=0.75;entryY=0.5;entryDx=0;entryDy=0;entryPerimeter=0;endArrow=openThin;endFill=0;" edge="1" parent="2nvxnJHDYDKnR72fFEk4-37" source="56FH4kdp573uSBIBM0mi-36" target="56FH4kdp573uSBIBM0mi-41">
          <mxGeometry relative="1" as="geometry" />
        </mxCell>
        <mxCell id="H-9CupvR6FkV16RHqmsr-2" style="edgeStyle=orthogonalEdgeStyle;rounded=0;orthogonalLoop=1;jettySize=auto;html=1;entryX=0.24;entryY=0.252;entryDx=0;entryDy=0;entryPerimeter=0;endArrow=openThin;endFill=0;" edge="1" parent="2nvxnJHDYDKnR72fFEk4-37" source="56FH4kdp573uSBIBM0mi-41" target="2nvxnJHDYDKnR72fFEk4-109">
          <mxGeometry relative="1" as="geometry" />
        </mxCell>
        <mxCell id="H-9CupvR6FkV16RHqmsr-3" value="View Reports" style="rounded=1;arcSize=10;whiteSpace=wrap;html=1;align=center;fillColor=#dae8fc;strokeColor=#6c8ebf;" vertex="1" parent="2nvxnJHDYDKnR72fFEk4-37">
          <mxGeometry x="105" y="386" width="100" height="40" as="geometry" />
        </mxCell>
        <mxCell id="H-9CupvR6FkV16RHqmsr-4" style="edgeStyle=orthogonalEdgeStyle;rounded=0;orthogonalLoop=1;jettySize=auto;html=1;entryX=0.499;entryY=0.267;entryDx=0;entryDy=0;entryPerimeter=0;endArrow=openThin;endFill=0;" edge="1" parent="2nvxnJHDYDKnR72fFEk4-37" source="H-9CupvR6FkV16RHqmsr-3" target="56FH4kdp573uSBIBM0mi-34">
          <mxGeometry relative="1" as="geometry" />
        </mxCell>
        <mxCell id="H-9CupvR6FkV16RHqmsr-8" style="edgeStyle=orthogonalEdgeStyle;rounded=0;orthogonalLoop=1;jettySize=auto;html=1;entryX=0.5;entryY=0;entryDx=0;entryDy=0;entryPerimeter=0;endArrow=openThin;endFill=0;" edge="1" parent="2nvxnJHDYDKnR72fFEk4-37" source="2nvxnJHDYDKnR72fFEk4-49" target="56FH4kdp573uSBIBM0mi-1">
          <mxGeometry relative="1" as="geometry" />
        </mxCell>
        <mxCell id="H-9CupvR6FkV16RHqmsr-9" value="" style="strokeWidth=2;html=1;shape=mxgraph.flowchart.decision;whiteSpace=wrap;fillColor=#dae8fc;strokeColor=#6c8ebf;" vertex="1" parent="2nvxnJHDYDKnR72fFEk4-37">
          <mxGeometry x="280" y="176" width="40" height="40" as="geometry" />
        </mxCell>
        <mxCell id="H-9CupvR6FkV16RHqmsr-10" style="edgeStyle=orthogonalEdgeStyle;rounded=0;orthogonalLoop=1;jettySize=auto;html=1;exitX=0.5;exitY=1;exitDx=0;exitDy=0;entryX=0;entryY=0.5;entryDx=0;entryDy=0;entryPerimeter=0;endArrow=openThin;endFill=0;" edge="1" parent="2nvxnJHDYDKnR72fFEk4-37" source="2nvxnJHDYDKnR72fFEk4-88" target="H-9CupvR6FkV16RHqmsr-9">
          <mxGeometry relative="1" as="geometry" />
        </mxCell>
        <mxCell id="H-9CupvR6FkV16RHqmsr-11" style="edgeStyle=orthogonalEdgeStyle;rounded=0;orthogonalLoop=1;jettySize=auto;html=1;exitX=0.5;exitY=1;exitDx=0;exitDy=0;entryX=1;entryY=0.5;entryDx=0;entryDy=0;entryPerimeter=0;endArrow=openThin;endFill=0;" edge="1" parent="2nvxnJHDYDKnR72fFEk4-37" source="56FH4kdp573uSBIBM0mi-4" target="H-9CupvR6FkV16RHqmsr-9">
          <mxGeometry relative="1" as="geometry" />
        </mxCell>
        <mxCell id="H-9CupvR6FkV16RHqmsr-17" style="edgeStyle=orthogonalEdgeStyle;rounded=0;orthogonalLoop=1;jettySize=auto;html=1;exitX=0.5;exitY=1;exitDx=0;exitDy=0;exitPerimeter=0;entryX=0.5;entryY=0;entryDx=0;entryDy=0;endArrow=openThin;endFill=0;" edge="1" parent="2nvxnJHDYDKnR72fFEk4-37" source="H-9CupvR6FkV16RHqmsr-15" target="H-9CupvR6FkV16RHqmsr-3">
          <mxGeometry relative="1" as="geometry">
            <Array as="points">
              <mxPoint x="300" y="366" />
              <mxPoint x="155" y="366" />
            </Array>
          </mxGeometry>
        </mxCell>
        <mxCell id="H-9CupvR6FkV16RHqmsr-15" value="" style="strokeWidth=2;html=1;shape=mxgraph.flowchart.decision;whiteSpace=wrap;fillColor=#dae8fc;strokeColor=#6c8ebf;" vertex="1" parent="2nvxnJHDYDKnR72fFEk4-37">
          <mxGeometry x="280" y="346" width="40" height="40" as="geometry" />
        </mxCell>
        <mxCell id="H-9CupvR6FkV16RHqmsr-19" style="edgeStyle=orthogonalEdgeStyle;rounded=0;orthogonalLoop=1;jettySize=auto;html=1;exitX=1;exitY=0.5;exitDx=0;exitDy=0;exitPerimeter=0;entryX=0.5;entryY=0;entryDx=0;entryDy=0;entryPerimeter=0;endArrow=openThin;endFill=0;" edge="1" parent="2nvxnJHDYDKnR72fFEk4-37" source="H-9CupvR6FkV16RHqmsr-15" target="56FH4kdp573uSBIBM0mi-21">
          <mxGeometry relative="1" as="geometry" />
        </mxCell>
        <mxCell id="2nvxnJHDYDKnR72fFEk4-114" style="edgeStyle=orthogonalEdgeStyle;rounded=0;orthogonalLoop=1;jettySize=auto;html=1;exitX=0.5;exitY=1;exitDx=0;exitDy=0;entryX=0;entryY=0.5;entryDx=0;entryDy=0;endArrow=openThin;endFill=0;" edge="1" parent="2nvxnJHDYDKnR72fFEk4-1" source="2nvxnJHDYDKnR72fFEk4-19" target="2nvxnJHDYDKnR72fFEk4-112">
          <mxGeometry relative="1" as="geometry" />
        </mxCell>
        <mxCell id="PSMdSgqibQbK2gK1wQie-2" style="edgeStyle=orthogonalEdgeStyle;rounded=0;orthogonalLoop=1;jettySize=auto;html=1;entryX=0;entryY=0.5;entryDx=0;entryDy=0;endArrow=openThin;endFill=0;" edge="1" parent="2nvxnJHDYDKnR72fFEk4-1" source="2nvxnJHDYDKnR72fFEk4-60" target="2nvxnJHDYDKnR72fFEk4-58">
          <mxGeometry relative="1" as="geometry" />
        </mxCell>
        <mxCell id="56FH4kdp573uSBIBM0mi-45" style="edgeStyle=orthogonalEdgeStyle;rounded=0;orthogonalLoop=1;jettySize=auto;html=1;exitX=0;exitY=0.5;exitDx=0;exitDy=0;entryX=1;entryY=0.5;entryDx=0;entryDy=0;endArrow=openThin;endFill=0;" edge="1" parent="2nvxnJHDYDKnR72fFEk4-1" source="2nvxnJHDYDKnR72fFEk4-102" target="56FH4kdp573uSBIBM0mi-44">
          <mxGeometry relative="1" as="geometry" />
        </mxCell>
        <mxCell id="H-9CupvR6FkV16RHqmsr-12" style="edgeStyle=orthogonalEdgeStyle;rounded=0;orthogonalLoop=1;jettySize=auto;html=1;exitX=0.5;exitY=1;exitDx=0;exitDy=0;exitPerimeter=0;entryX=1;entryY=0.5;entryDx=0;entryDy=0;endArrow=openThin;endFill=0;" edge="1" parent="2nvxnJHDYDKnR72fFEk4-1" source="H-9CupvR6FkV16RHqmsr-9" target="2nvxnJHDYDKnR72fFEk4-58">
          <mxGeometry relative="1" as="geometry" />
        </mxCell>
        <mxCell id="H-9CupvR6FkV16RHqmsr-13" style="edgeStyle=orthogonalEdgeStyle;rounded=0;orthogonalLoop=1;jettySize=auto;html=1;exitX=0;exitY=0.5;exitDx=0;exitDy=0;exitPerimeter=0;entryX=0.5;entryY=0;entryDx=0;entryDy=0;" edge="1" parent="2nvxnJHDYDKnR72fFEk4-1" source="PSMdSgqibQbK2gK1wQie-3" target="2nvxnJHDYDKnR72fFEk4-19">
          <mxGeometry relative="1" as="geometry" />
        </mxCell>
        <mxCell id="H-9CupvR6FkV16RHqmsr-22" style="edgeStyle=orthogonalEdgeStyle;rounded=0;orthogonalLoop=1;jettySize=auto;html=1;entryX=1;entryY=0.5;entryDx=0;entryDy=0;endArrow=openThin;endFill=0;" edge="1" parent="2nvxnJHDYDKnR72fFEk4-1" source="2nvxnJHDYDKnR72fFEk4-109" target="2nvxnJHDYDKnR72fFEk4-112">
          <mxGeometry relative="1" as="geometry">
            <Array as="points">
              <mxPoint x="730" y="816" />
            </Array>
          </mxGeometry>
        </mxCell>
        <mxCell id="H-9CupvR6FkV16RHqmsr-23" style="edgeStyle=orthogonalEdgeStyle;rounded=0;orthogonalLoop=1;jettySize=auto;html=1;endArrow=openThin;endFill=0;" edge="1" parent="2nvxnJHDYDKnR72fFEk4-1" source="PSMdSgqibQbK2gK1wQie-3" target="H-9CupvR6FkV16RHqmsr-15">
          <mxGeometry relative="1" as="geometry" />
        </mxCell>
        <mxCell id="cT5cLGAAEtubQf1Vv3rj-6" style="edgeStyle=orthogonalEdgeStyle;rounded=0;orthogonalLoop=1;jettySize=auto;html=1;exitX=0.5;exitY=1;exitDx=0;exitDy=0;" edge="1" parent="1">
          <mxGeometry relative="1" as="geometry">
            <mxPoint x="490.25" y="851.0000000000002" as="sourcePoint" />
            <mxPoint x="490.25" y="851.0000000000002" as="targetPoint" />
          </mxGeometry>
        </mxCell>
        <mxCell id="H-9CupvR6FkV16RHqmsr-24" value="SPSO" style="text;html=1;align=center;verticalAlign=middle;resizable=0;points=[];autosize=1;strokeColor=none;fillColor=none;" vertex="1" parent="1">
          <mxGeometry x="636" y="410" width="60" height="30" as="geometry" />
        </mxCell>
      </root>
    </mxGraphModel>
  </diagram>
  <diagram id="-Cqrt70XEzL_PXOEwipF" name="sequence_student">
    <mxGraphModel grid="1" page="1" gridSize="10" guides="1" tooltips="1" connect="1" arrows="1" fold="1" pageScale="1" pageWidth="827" pageHeight="1169" background="none" math="0" shadow="0">
      <root>
        <mxCell id="0" />
        <mxCell id="1" parent="0" />
        <mxCell id="phmrT5WBQWrBj_f2vCn3-1" value="" style="shape=umlLifeline;perimeter=lifelinePerimeter;whiteSpace=wrap;html=1;container=1;dropTarget=0;collapsible=0;recursiveResize=0;outlineConnect=0;portConstraint=eastwest;newEdgeStyle={&quot;curved&quot;:0,&quot;rounded&quot;:0};participant=umlActor;" vertex="1" parent="1">
          <mxGeometry x="120" y="40" width="20" height="390" as="geometry" />
        </mxCell>
        <mxCell id="phmrT5WBQWrBj_f2vCn3-2" value="Student" style="text;html=1;align=center;verticalAlign=middle;resizable=0;points=[];autosize=1;strokeColor=none;fillColor=none;" vertex="1" parent="1">
          <mxGeometry x="100" y="17" width="60" height="30" as="geometry" />
        </mxCell>
        <mxCell id="bpvtHXDBu0u0QRTz9KQM-1" value="" style="shape=umlLifeline;perimeter=lifelinePerimeter;whiteSpace=wrap;html=1;container=1;dropTarget=0;collapsible=0;recursiveResize=0;outlineConnect=0;portConstraint=eastwest;newEdgeStyle={&quot;curved&quot;:0,&quot;rounded&quot;:0};participant=umlActor;" vertex="1" parent="1">
          <mxGeometry x="120" y="40" width="20" height="620" as="geometry" />
        </mxCell>
        <mxCell id="bpvtHXDBu0u0QRTz9KQM-2" value="" style="html=1;points=[[0,0,0,0,5],[0,1,0,0,-5],[1,0,0,0,5],[1,1,0,0,-5]];perimeter=orthogonalPerimeter;outlineConnect=0;targetShapes=umlLifeline;portConstraint=eastwest;newEdgeStyle={&quot;curved&quot;:0,&quot;rounded&quot;:0};" vertex="1" parent="bpvtHXDBu0u0QRTz9KQM-1">
          <mxGeometry x="5" y="70" width="10" height="530" as="geometry" />
        </mxCell>
        <mxCell id="bpvtHXDBu0u0QRTz9KQM-3" value="dispatch" style="html=1;verticalAlign=bottom;startArrow=oval;endArrow=block;startSize=8;curved=0;rounded=0;entryX=0;entryY=0;entryDx=0;entryDy=5;" edge="1" parent="bpvtHXDBu0u0QRTz9KQM-1" target="bpvtHXDBu0u0QRTz9KQM-2">
          <mxGeometry relative="1" as="geometry">
            <mxPoint x="-60" y="75" as="sourcePoint" />
          </mxGeometry>
        </mxCell>
        <mxCell id="bpvtHXDBu0u0QRTz9KQM-4" value=":UI" style="shape=umlLifeline;perimeter=lifelinePerimeter;whiteSpace=wrap;html=1;container=1;dropTarget=0;collapsible=0;recursiveResize=0;outlineConnect=0;portConstraint=eastwest;newEdgeStyle={&quot;curved&quot;:0,&quot;rounded&quot;:0};" vertex="1" parent="1">
          <mxGeometry x="280" y="40" width="100" height="620" as="geometry" />
        </mxCell>
        <mxCell id="bpvtHXDBu0u0QRTz9KQM-5" value="" style="html=1;points=[[0,0,0,0,5],[0,1,0,0,-5],[1,0,0,0,5],[1,1,0,0,-5]];perimeter=orthogonalPerimeter;outlineConnect=0;targetShapes=umlLifeline;portConstraint=eastwest;newEdgeStyle={&quot;curved&quot;:0,&quot;rounded&quot;:0};" vertex="1" parent="bpvtHXDBu0u0QRTz9KQM-4">
          <mxGeometry x="45" y="150" width="10" height="450" as="geometry" />
        </mxCell>
        <mxCell id="bpvtHXDBu0u0QRTz9KQM-6" value=":System" style="shape=umlLifeline;perimeter=lifelinePerimeter;whiteSpace=wrap;html=1;container=1;dropTarget=0;collapsible=0;recursiveResize=0;outlineConnect=0;portConstraint=eastwest;newEdgeStyle={&quot;curved&quot;:0,&quot;rounded&quot;:0};" vertex="1" parent="1">
          <mxGeometry x="520" y="40" width="100" height="620" as="geometry" />
        </mxCell>
        <mxCell id="bpvtHXDBu0u0QRTz9KQM-7" value="" style="html=1;points=[[0,0,0,0,5],[0,1,0,0,-5],[1,0,0,0,5],[1,1,0,0,-5]];perimeter=orthogonalPerimeter;outlineConnect=0;targetShapes=umlLifeline;portConstraint=eastwest;newEdgeStyle={&quot;curved&quot;:0,&quot;rounded&quot;:0};" vertex="1" parent="bpvtHXDBu0u0QRTz9KQM-6">
          <mxGeometry x="45" y="80" width="10" height="80" as="geometry" />
        </mxCell>
        <mxCell id="bpvtHXDBu0u0QRTz9KQM-8" value="" style="html=1;points=[[0,0,0,0,5],[0,1,0,0,-5],[1,0,0,0,5],[1,1,0,0,-5]];perimeter=orthogonalPerimeter;outlineConnect=0;targetShapes=umlLifeline;portConstraint=eastwest;newEdgeStyle={&quot;curved&quot;:0,&quot;rounded&quot;:0};" vertex="1" parent="bpvtHXDBu0u0QRTz9KQM-6">
          <mxGeometry x="45" y="200" width="10" height="120" as="geometry" />
        </mxCell>
        <mxCell id="aX7mmD2Pq0PMaz0IY1tW-5" value="" style="html=1;points=[[0,0,0,0,5],[0,1,0,0,-5],[1,0,0,0,5],[1,1,0,0,-5]];perimeter=orthogonalPerimeter;outlineConnect=0;targetShapes=umlLifeline;portConstraint=eastwest;newEdgeStyle={&quot;curved&quot;:0,&quot;rounded&quot;:0};" vertex="1" parent="bpvtHXDBu0u0QRTz9KQM-6">
          <mxGeometry x="45" y="400" width="10" height="130" as="geometry" />
        </mxCell>
        <mxCell id="bpvtHXDBu0u0QRTz9KQM-9" value=":Database" style="shape=umlLifeline;perimeter=lifelinePerimeter;whiteSpace=wrap;html=1;container=1;dropTarget=0;collapsible=0;recursiveResize=0;outlineConnect=0;portConstraint=eastwest;newEdgeStyle={&quot;curved&quot;:0,&quot;rounded&quot;:0};" vertex="1" parent="1">
          <mxGeometry x="760" y="40" width="100" height="620" as="geometry" />
        </mxCell>
        <mxCell id="aX7mmD2Pq0PMaz0IY1tW-1" value="" style="html=1;points=[[0,0,0,0,5],[0,1,0,0,-5],[1,0,0,0,5],[1,1,0,0,-5]];perimeter=orthogonalPerimeter;outlineConnect=0;targetShapes=umlLifeline;portConstraint=eastwest;newEdgeStyle={&quot;curved&quot;:0,&quot;rounded&quot;:0};" vertex="1" parent="bpvtHXDBu0u0QRTz9KQM-9">
          <mxGeometry x="45" y="210" width="10" height="100" as="geometry" />
        </mxCell>
        <mxCell id="gx7S-mYbAQ8lX0qDViWG-1" value="" style="html=1;points=[[0,0,0,0,5],[0,1,0,0,-5],[1,0,0,0,5],[1,1,0,0,-5]];perimeter=orthogonalPerimeter;outlineConnect=0;targetShapes=umlLifeline;portConstraint=eastwest;newEdgeStyle={&quot;curved&quot;:0,&quot;rounded&quot;:0};" vertex="1" parent="bpvtHXDBu0u0QRTz9KQM-9">
          <mxGeometry x="35" y="410" width="10" height="110" as="geometry" />
        </mxCell>
        <mxCell id="bpvtHXDBu0u0QRTz9KQM-10" value="Open website and login" style="html=1;verticalAlign=bottom;endArrow=block;curved=0;rounded=0;entryX=0;entryY=0;entryDx=0;entryDy=5;" edge="1" parent="1" source="bpvtHXDBu0u0QRTz9KQM-2" target="bpvtHXDBu0u0QRTz9KQM-7">
          <mxGeometry x="-0.6977" relative="1" as="geometry">
            <mxPoint x="255" y="100" as="sourcePoint" />
            <mxPoint as="offset" />
          </mxGeometry>
        </mxCell>
        <mxCell id="bpvtHXDBu0u0QRTz9KQM-11" value="Return Student UI" style="html=1;verticalAlign=bottom;endArrow=open;dashed=1;endSize=8;curved=0;rounded=0;exitX=0;exitY=1;exitDx=0;exitDy=-5;entryX=1;entryY=0;entryDx=0;entryDy=5;entryPerimeter=0;" edge="1" parent="1" source="bpvtHXDBu0u0QRTz9KQM-7" target="bpvtHXDBu0u0QRTz9KQM-5">
          <mxGeometry relative="1" as="geometry">
            <mxPoint x="410" y="195" as="targetPoint" />
          </mxGeometry>
        </mxCell>
        <mxCell id="bpvtHXDBu0u0QRTz9KQM-12" value="Load &quot;History&quot; page" style="html=1;verticalAlign=bottom;endArrow=block;curved=0;rounded=0;entryX=0;entryY=0;entryDx=0;entryDy=5;" edge="1" parent="1" source="bpvtHXDBu0u0QRTz9KQM-5" target="bpvtHXDBu0u0QRTz9KQM-8">
          <mxGeometry relative="1" as="geometry">
            <mxPoint x="495" y="245" as="sourcePoint" />
          </mxGeometry>
        </mxCell>
        <mxCell id="bpvtHXDBu0u0QRTz9KQM-13" value="Return History UI" style="html=1;verticalAlign=bottom;endArrow=open;dashed=1;endSize=8;curved=0;rounded=0;exitX=0;exitY=1;exitDx=0;exitDy=-5;" edge="1" parent="1" source="bpvtHXDBu0u0QRTz9KQM-8" target="bpvtHXDBu0u0QRTz9KQM-5">
          <mxGeometry relative="1" as="geometry">
            <mxPoint x="495" y="315" as="targetPoint" />
          </mxGeometry>
        </mxCell>
        <mxCell id="aX7mmD2Pq0PMaz0IY1tW-2" value="Request system history" style="html=1;verticalAlign=bottom;endArrow=block;curved=0;rounded=0;entryX=0;entryY=0;entryDx=0;entryDy=5;" edge="1" parent="1" source="bpvtHXDBu0u0QRTz9KQM-8" target="aX7mmD2Pq0PMaz0IY1tW-1">
          <mxGeometry relative="1" as="geometry">
            <mxPoint x="735" y="255" as="sourcePoint" />
          </mxGeometry>
        </mxCell>
        <mxCell id="aX7mmD2Pq0PMaz0IY1tW-3" value="Return system history" style="html=1;verticalAlign=bottom;endArrow=open;dashed=1;endSize=8;curved=0;rounded=0;exitX=0;exitY=1;exitDx=0;exitDy=-5;" edge="1" parent="1" source="aX7mmD2Pq0PMaz0IY1tW-1" target="bpvtHXDBu0u0QRTz9KQM-8">
          <mxGeometry relative="1" as="geometry">
            <mxPoint x="735" y="325" as="targetPoint" />
          </mxGeometry>
        </mxCell>
        <mxCell id="aX7mmD2Pq0PMaz0IY1tW-7" value="Display filtered data" style="html=1;verticalAlign=bottom;endArrow=open;dashed=1;endSize=8;curved=0;rounded=0;exitX=0;exitY=1;exitDx=0;exitDy=-5;exitPerimeter=0;" edge="1" parent="1" source="aX7mmD2Pq0PMaz0IY1tW-5" target="bpvtHXDBu0u0QRTz9KQM-5">
          <mxGeometry relative="1" as="geometry">
            <mxPoint x="333.5" y="650" as="targetPoint" />
            <mxPoint x="563.5" y="650" as="sourcePoint" />
          </mxGeometry>
        </mxCell>
        <mxCell id="gx7S-mYbAQ8lX0qDViWG-2" value="Request data corresponding to filter" style="html=1;verticalAlign=bottom;endArrow=block;curved=0;rounded=0;entryX=0;entryY=0;entryDx=0;entryDy=5;" edge="1" parent="1" source="aX7mmD2Pq0PMaz0IY1tW-5" target="gx7S-mYbAQ8lX0qDViWG-1">
          <mxGeometry relative="1" as="geometry">
            <mxPoint x="735" y="425" as="sourcePoint" />
          </mxGeometry>
        </mxCell>
        <mxCell id="gx7S-mYbAQ8lX0qDViWG-3" value="Return data corresponding to filter" style="html=1;verticalAlign=bottom;endArrow=open;dashed=1;endSize=8;curved=0;rounded=0;exitX=0;exitY=1;exitDx=0;exitDy=-5;exitPerimeter=0;" edge="1" parent="1" source="gx7S-mYbAQ8lX0qDViWG-1">
          <mxGeometry relative="1" as="geometry">
            <mxPoint x="575" y="554" as="targetPoint" />
            <mxPoint as="offset" />
            <mxPoint x="790" y="554" as="sourcePoint" />
          </mxGeometry>
        </mxCell>
        <mxCell id="gx7S-mYbAQ8lX0qDViWG-4" value="Click on &quot;History&quot;" style="html=1;verticalAlign=bottom;endArrow=block;curved=0;rounded=0;" edge="1" parent="1">
          <mxGeometry relative="1" as="geometry">
            <mxPoint x="135" y="235" as="sourcePoint" />
            <mxPoint x="325" y="235" as="targetPoint" />
          </mxGeometry>
        </mxCell>
        <mxCell id="gx7S-mYbAQ8lX0qDViWG-5" value="Apply filter" style="html=1;verticalAlign=bottom;endArrow=block;curved=0;rounded=0;" edge="1" parent="1">
          <mxGeometry relative="1" as="geometry">
            <mxPoint x="135" y="433.9999999999999" as="sourcePoint" />
            <mxPoint x="325" y="433.9999999999999" as="targetPoint" />
            <mxPoint as="offset" />
          </mxGeometry>
        </mxCell>
        <mxCell id="gx7S-mYbAQ8lX0qDViWG-6" value="Load records with requested data" style="html=1;verticalAlign=bottom;endArrow=block;curved=0;rounded=0;entryX=0;entryY=0;entryDx=0;entryDy=5;entryPerimeter=0;" edge="1" parent="1">
          <mxGeometry relative="1" as="geometry">
            <mxPoint x="335" y="443" as="sourcePoint" />
            <mxPoint x="565" y="443" as="targetPoint" />
          </mxGeometry>
        </mxCell>
        <mxCell id="nV-2Fx00wJ-O7Am7IzQT-1" value="Loop" style="shape=umlFrame;whiteSpace=wrap;html=1;pointerEvents=0;" vertex="1" parent="1">
          <mxGeometry x="50" y="403" width="780" height="200" as="geometry" />
        </mxCell>
        <mxCell id="nV-2Fx00wJ-O7Am7IzQT-2" value="Opt" style="shape=umlFrame;whiteSpace=wrap;html=1;pointerEvents=0;" vertex="1" parent="1">
          <mxGeometry x="-20" y="370" width="870" height="250" as="geometry" />
        </mxCell>
        <mxCell id="nV-2Fx00wJ-O7Am7IzQT-3" value="[Apply filter]" style="text;html=1;align=center;verticalAlign=middle;resizable=0;points=[];autosize=1;strokeColor=none;fillColor=none;" vertex="1" parent="1">
          <mxGeometry x="37" y="372" width="90" height="30" as="geometry" />
        </mxCell>
      </root>
    </mxGraphModel>
  </diagram>
  <diagram id="Y-O7qTLPXY9obOn6y1y8" name="Sequence_SPSO">
    <mxGraphModel grid="1" page="1" gridSize="10" guides="1" tooltips="1" connect="1" arrows="1" fold="1" pageScale="1" pageWidth="827" pageHeight="1169" math="0" shadow="0">
      <root>
        <mxCell id="0" />
        <mxCell id="1" parent="0" />
        <mxCell id="TS_lB0NZND1CEisOUFke-14" value="Open website and login" style="html=1;verticalAlign=bottom;endArrow=block;curved=0;rounded=0;entryX=0;entryY=0;entryDx=0;entryDy=5;" edge="1" parent="1">
          <mxGeometry x="-0.6977" relative="1" as="geometry">
            <mxPoint x="140" y="120" as="sourcePoint" />
            <mxPoint as="offset" />
          </mxGeometry>
        </mxCell>
        <mxCell id="-QCihvRUBk_8zJ_iL8wI-1" value="" style="shape=umlLifeline;perimeter=lifelinePerimeter;whiteSpace=wrap;html=1;container=1;dropTarget=0;collapsible=0;recursiveResize=0;outlineConnect=0;portConstraint=eastwest;newEdgeStyle={&quot;curved&quot;:0,&quot;rounded&quot;:0};participant=umlActor;" vertex="1" parent="1">
          <mxGeometry x="120" y="40" width="20" height="390" as="geometry" />
        </mxCell>
        <mxCell id="-QCihvRUBk_8zJ_iL8wI-2" value="" style="shape=umlLifeline;perimeter=lifelinePerimeter;whiteSpace=wrap;html=1;container=1;dropTarget=0;collapsible=0;recursiveResize=0;outlineConnect=0;portConstraint=eastwest;newEdgeStyle={&quot;curved&quot;:0,&quot;rounded&quot;:0};participant=umlActor;" vertex="1" parent="1">
          <mxGeometry x="120" y="40" width="20" height="1600" as="geometry" />
        </mxCell>
        <mxCell id="-QCihvRUBk_8zJ_iL8wI-3" value="" style="html=1;points=[[0,0,0,0,5],[0,1,0,0,-5],[1,0,0,0,5],[1,1,0,0,-5]];perimeter=orthogonalPerimeter;outlineConnect=0;targetShapes=umlLifeline;portConstraint=eastwest;newEdgeStyle={&quot;curved&quot;:0,&quot;rounded&quot;:0};" vertex="1" parent="-QCihvRUBk_8zJ_iL8wI-2">
          <mxGeometry x="5" y="70" width="10" height="1490" as="geometry" />
        </mxCell>
        <mxCell id="-QCihvRUBk_8zJ_iL8wI-4" value="dispatch" style="html=1;verticalAlign=bottom;startArrow=oval;endArrow=block;startSize=8;curved=0;rounded=0;entryX=0;entryY=0;entryDx=0;entryDy=5;" edge="1" parent="-QCihvRUBk_8zJ_iL8wI-2" target="-QCihvRUBk_8zJ_iL8wI-3">
          <mxGeometry relative="1" as="geometry">
            <mxPoint x="-60" y="75" as="sourcePoint" />
          </mxGeometry>
        </mxCell>
        <mxCell id="-QCihvRUBk_8zJ_iL8wI-5" value=":UI" style="shape=umlLifeline;perimeter=lifelinePerimeter;whiteSpace=wrap;html=1;container=1;dropTarget=0;collapsible=0;recursiveResize=0;outlineConnect=0;portConstraint=eastwest;newEdgeStyle={&quot;curved&quot;:0,&quot;rounded&quot;:0};" vertex="1" parent="1">
          <mxGeometry x="280" y="40" width="100" height="1600" as="geometry" />
        </mxCell>
        <mxCell id="-QCihvRUBk_8zJ_iL8wI-6" value="" style="html=1;points=[[0,0,0,0,5],[0,1,0,0,-5],[1,0,0,0,5],[1,1,0,0,-5]];perimeter=orthogonalPerimeter;outlineConnect=0;targetShapes=umlLifeline;portConstraint=eastwest;newEdgeStyle={&quot;curved&quot;:0,&quot;rounded&quot;:0};" vertex="1" parent="-QCihvRUBk_8zJ_iL8wI-5">
          <mxGeometry x="45" y="150" width="10" height="1410" as="geometry" />
        </mxCell>
        <mxCell id="-QCihvRUBk_8zJ_iL8wI-7" value=":System" style="shape=umlLifeline;perimeter=lifelinePerimeter;whiteSpace=wrap;html=1;container=1;dropTarget=0;collapsible=0;recursiveResize=0;outlineConnect=0;portConstraint=eastwest;newEdgeStyle={&quot;curved&quot;:0,&quot;rounded&quot;:0};" vertex="1" parent="1">
          <mxGeometry x="520" y="40" width="100" height="1600" as="geometry" />
        </mxCell>
        <mxCell id="-QCihvRUBk_8zJ_iL8wI-8" value="" style="html=1;points=[[0,0,0,0,5],[0,1,0,0,-5],[1,0,0,0,5],[1,1,0,0,-5]];perimeter=orthogonalPerimeter;outlineConnect=0;targetShapes=umlLifeline;portConstraint=eastwest;newEdgeStyle={&quot;curved&quot;:0,&quot;rounded&quot;:0};" vertex="1" parent="-QCihvRUBk_8zJ_iL8wI-7">
          <mxGeometry x="45" y="79" width="10" height="80" as="geometry" />
        </mxCell>
        <mxCell id="-QCihvRUBk_8zJ_iL8wI-9" value="" style="html=1;points=[[0,0,0,0,5],[0,1,0,0,-5],[1,0,0,0,5],[1,1,0,0,-5]];perimeter=orthogonalPerimeter;outlineConnect=0;targetShapes=umlLifeline;portConstraint=eastwest;newEdgeStyle={&quot;curved&quot;:0,&quot;rounded&quot;:0};" vertex="1" parent="-QCihvRUBk_8zJ_iL8wI-7">
          <mxGeometry x="45" y="200" width="10" height="120" as="geometry" />
        </mxCell>
        <mxCell id="-QCihvRUBk_8zJ_iL8wI-10" value="" style="html=1;points=[[0,0,0,0,5],[0,1,0,0,-5],[1,0,0,0,5],[1,1,0,0,-5]];perimeter=orthogonalPerimeter;outlineConnect=0;targetShapes=umlLifeline;portConstraint=eastwest;newEdgeStyle={&quot;curved&quot;:0,&quot;rounded&quot;:0};" vertex="1" parent="-QCihvRUBk_8zJ_iL8wI-7">
          <mxGeometry x="45" y="560" width="10" height="109" as="geometry" />
        </mxCell>
        <mxCell id="-QCihvRUBk_8zJ_iL8wI-11" value="" style="html=1;points=[[0,0,0,0,5],[0,1,0,0,-5],[1,0,0,0,5],[1,1,0,0,-5]];perimeter=orthogonalPerimeter;outlineConnect=0;targetShapes=umlLifeline;portConstraint=eastwest;newEdgeStyle={&quot;curved&quot;:0,&quot;rounded&quot;:0};" vertex="1" parent="-QCihvRUBk_8zJ_iL8wI-7">
          <mxGeometry x="45" y="749" width="10" height="120" as="geometry" />
        </mxCell>
        <mxCell id="-QCihvRUBk_8zJ_iL8wI-12" value="" style="html=1;points=[[0,0,0,0,5],[0,1,0,0,-5],[1,0,0,0,5],[1,1,0,0,-5]];perimeter=orthogonalPerimeter;outlineConnect=0;targetShapes=umlLifeline;portConstraint=eastwest;newEdgeStyle={&quot;curved&quot;:0,&quot;rounded&quot;:0};" vertex="1" parent="-QCihvRUBk_8zJ_iL8wI-7">
          <mxGeometry x="45" y="1219" width="10" height="80" as="geometry" />
        </mxCell>
        <mxCell id="-QCihvRUBk_8zJ_iL8wI-50" value="" style="html=1;points=[[0,0,0,0,5],[0,1,0,0,-5],[1,0,0,0,5],[1,1,0,0,-5]];perimeter=orthogonalPerimeter;outlineConnect=0;targetShapes=umlLifeline;portConstraint=eastwest;newEdgeStyle={&quot;curved&quot;:0,&quot;rounded&quot;:0};" vertex="1" parent="-QCihvRUBk_8zJ_iL8wI-7">
          <mxGeometry x="45" y="1450" width="10" height="25" as="geometry" />
        </mxCell>
        <mxCell id="-QCihvRUBk_8zJ_iL8wI-13" value=":Database" style="shape=umlLifeline;perimeter=lifelinePerimeter;whiteSpace=wrap;html=1;container=1;dropTarget=0;collapsible=0;recursiveResize=0;outlineConnect=0;portConstraint=eastwest;newEdgeStyle={&quot;curved&quot;:0,&quot;rounded&quot;:0};" vertex="1" parent="1">
          <mxGeometry x="760" y="40" width="100" height="1600" as="geometry" />
        </mxCell>
        <mxCell id="-QCihvRUBk_8zJ_iL8wI-14" value="" style="html=1;points=[[0,0,0,0,5],[0,1,0,0,-5],[1,0,0,0,5],[1,1,0,0,-5]];perimeter=orthogonalPerimeter;outlineConnect=0;targetShapes=umlLifeline;portConstraint=eastwest;newEdgeStyle={&quot;curved&quot;:0,&quot;rounded&quot;:0};" vertex="1" parent="-QCihvRUBk_8zJ_iL8wI-13">
          <mxGeometry x="45" y="210" width="10" height="100" as="geometry" />
        </mxCell>
        <mxCell id="-QCihvRUBk_8zJ_iL8wI-15" value="" style="html=1;points=[[0,0,0,0,5],[0,1,0,0,-5],[1,0,0,0,5],[1,1,0,0,-5]];perimeter=orthogonalPerimeter;outlineConnect=0;targetShapes=umlLifeline;portConstraint=eastwest;newEdgeStyle={&quot;curved&quot;:0,&quot;rounded&quot;:0};" vertex="1" parent="-QCihvRUBk_8zJ_iL8wI-13">
          <mxGeometry x="45" y="570" width="10" height="90" as="geometry" />
        </mxCell>
        <mxCell id="-QCihvRUBk_8zJ_iL8wI-16" value="Return necessary information" style="html=1;verticalAlign=bottom;endArrow=open;dashed=1;endSize=8;curved=0;rounded=0;exitX=0;exitY=1;exitDx=0;exitDy=-5;" edge="1" parent="-QCihvRUBk_8zJ_iL8wI-13">
          <mxGeometry relative="1" as="geometry">
            <mxPoint x="-185" y="853" as="targetPoint" />
            <mxPoint x="45" y="853" as="sourcePoint" />
          </mxGeometry>
        </mxCell>
        <mxCell id="-QCihvRUBk_8zJ_iL8wI-17" value="" style="html=1;points=[[0,0,0,0,5],[0,1,0,0,-5],[1,0,0,0,5],[1,1,0,0,-5]];perimeter=orthogonalPerimeter;outlineConnect=0;targetShapes=umlLifeline;portConstraint=eastwest;newEdgeStyle={&quot;curved&quot;:0,&quot;rounded&quot;:0};" vertex="1" parent="-QCihvRUBk_8zJ_iL8wI-13">
          <mxGeometry x="45" y="1450" width="10" height="25" as="geometry" />
        </mxCell>
        <mxCell id="-QCihvRUBk_8zJ_iL8wI-18" value="Open website and login" style="html=1;verticalAlign=bottom;endArrow=block;curved=0;rounded=0;entryX=0;entryY=0;entryDx=0;entryDy=5;" edge="1" parent="1" source="-QCihvRUBk_8zJ_iL8wI-3" target="-QCihvRUBk_8zJ_iL8wI-8">
          <mxGeometry x="-0.6977" relative="1" as="geometry">
            <mxPoint x="255" y="100" as="sourcePoint" />
            <mxPoint as="offset" />
          </mxGeometry>
        </mxCell>
        <mxCell id="-QCihvRUBk_8zJ_iL8wI-19" value="Return SPSO UI" style="html=1;verticalAlign=bottom;endArrow=open;dashed=1;endSize=8;curved=0;rounded=0;exitX=0;exitY=1;exitDx=0;exitDy=-5;entryX=1;entryY=0;entryDx=0;entryDy=5;entryPerimeter=0;" edge="1" parent="1" source="-QCihvRUBk_8zJ_iL8wI-8" target="-QCihvRUBk_8zJ_iL8wI-6">
          <mxGeometry relative="1" as="geometry">
            <mxPoint x="410" y="195" as="targetPoint" />
          </mxGeometry>
        </mxCell>
        <mxCell id="-QCihvRUBk_8zJ_iL8wI-20" value="Load &quot;History&quot; page" style="html=1;verticalAlign=bottom;endArrow=block;curved=0;rounded=0;entryX=0;entryY=0;entryDx=0;entryDy=5;" edge="1" parent="1" source="-QCihvRUBk_8zJ_iL8wI-6" target="-QCihvRUBk_8zJ_iL8wI-9">
          <mxGeometry relative="1" as="geometry">
            <mxPoint x="495" y="245" as="sourcePoint" />
          </mxGeometry>
        </mxCell>
        <mxCell id="-QCihvRUBk_8zJ_iL8wI-21" value="Return History UI" style="html=1;verticalAlign=bottom;endArrow=open;dashed=1;endSize=8;curved=0;rounded=0;exitX=0;exitY=1;exitDx=0;exitDy=-5;" edge="1" parent="1" source="-QCihvRUBk_8zJ_iL8wI-9" target="-QCihvRUBk_8zJ_iL8wI-6">
          <mxGeometry relative="1" as="geometry">
            <mxPoint x="495" y="315" as="targetPoint" />
          </mxGeometry>
        </mxCell>
        <mxCell id="-QCihvRUBk_8zJ_iL8wI-22" value="Request system history" style="html=1;verticalAlign=bottom;endArrow=block;curved=0;rounded=0;entryX=0;entryY=0;entryDx=0;entryDy=5;" edge="1" parent="1" source="-QCihvRUBk_8zJ_iL8wI-9" target="-QCihvRUBk_8zJ_iL8wI-14">
          <mxGeometry relative="1" as="geometry">
            <mxPoint x="735" y="255" as="sourcePoint" />
          </mxGeometry>
        </mxCell>
        <mxCell id="-QCihvRUBk_8zJ_iL8wI-23" value="Return system history" style="html=1;verticalAlign=bottom;endArrow=open;dashed=1;endSize=8;curved=0;rounded=0;exitX=0;exitY=1;exitDx=0;exitDy=-5;" edge="1" parent="1" source="-QCihvRUBk_8zJ_iL8wI-14" target="-QCihvRUBk_8zJ_iL8wI-9">
          <mxGeometry relative="1" as="geometry">
            <mxPoint x="735" y="325" as="targetPoint" />
          </mxGeometry>
        </mxCell>
        <mxCell id="-QCihvRUBk_8zJ_iL8wI-24" value="Loop" style="shape=umlFrame;whiteSpace=wrap;html=1;pointerEvents=0;" vertex="1" parent="1">
          <mxGeometry x="40" y="420" width="810" height="300" as="geometry" />
        </mxCell>
        <mxCell id="-QCihvRUBk_8zJ_iL8wI-25" value="Display filtered data" style="html=1;verticalAlign=bottom;endArrow=open;dashed=1;endSize=8;curved=0;rounded=0;exitX=0;exitY=1;exitDx=0;exitDy=-5;exitPerimeter=0;" edge="1" parent="1">
          <mxGeometry relative="1" as="geometry">
            <mxPoint x="335" y="705" as="targetPoint" />
            <mxPoint x="565" y="705" as="sourcePoint" />
          </mxGeometry>
        </mxCell>
        <mxCell id="-QCihvRUBk_8zJ_iL8wI-26" value="Request data corresponding to filter" style="html=1;verticalAlign=bottom;endArrow=block;curved=0;rounded=0;entryX=0;entryY=0;entryDx=0;entryDy=5;" edge="1" parent="1">
          <mxGeometry relative="1" as="geometry">
            <mxPoint x="575" y="615" as="sourcePoint" />
            <mxPoint x="805" y="615" as="targetPoint" />
          </mxGeometry>
        </mxCell>
        <mxCell id="-QCihvRUBk_8zJ_iL8wI-27" value="Return data corresponding to filter" style="html=1;verticalAlign=bottom;endArrow=open;dashed=1;endSize=8;curved=0;rounded=0;exitX=0;exitY=1;exitDx=0;exitDy=-5;" edge="1" parent="1">
          <mxGeometry relative="1" as="geometry">
            <mxPoint x="575" y="695" as="targetPoint" />
            <mxPoint as="offset" />
            <mxPoint x="805" y="695" as="sourcePoint" />
          </mxGeometry>
        </mxCell>
        <mxCell id="-QCihvRUBk_8zJ_iL8wI-28" value="Click on &quot;History&quot;" style="html=1;verticalAlign=bottom;endArrow=block;curved=0;rounded=0;" edge="1" parent="1">
          <mxGeometry relative="1" as="geometry">
            <mxPoint x="135" y="235" as="sourcePoint" />
            <mxPoint x="325" y="235" as="targetPoint" />
          </mxGeometry>
        </mxCell>
        <mxCell id="-QCihvRUBk_8zJ_iL8wI-29" value="Choose one/many/all students" style="html=1;verticalAlign=bottom;endArrow=block;curved=0;rounded=0;" edge="1" parent="1">
          <mxGeometry relative="1" as="geometry">
            <mxPoint x="135" y="484.9999999999999" as="sourcePoint" />
            <mxPoint x="325" y="484.9999999999999" as="targetPoint" />
          </mxGeometry>
        </mxCell>
        <mxCell id="-QCihvRUBk_8zJ_iL8wI-30" value="Load records with requested data" style="html=1;verticalAlign=bottom;endArrow=block;curved=0;rounded=0;entryX=0;entryY=0;entryDx=0;entryDy=5;entryPerimeter=0;" edge="1" parent="1">
          <mxGeometry relative="1" as="geometry">
            <mxPoint x="335" y="604" as="sourcePoint" />
            <mxPoint x="565" y="604" as="targetPoint" />
          </mxGeometry>
        </mxCell>
        <mxCell id="-QCihvRUBk_8zJ_iL8wI-31" value="Alt" style="shape=umlFrame;whiteSpace=wrap;html=1;pointerEvents=0;" vertex="1" parent="1">
          <mxGeometry x="-40" y="210" width="910" height="1370" as="geometry" />
        </mxCell>
        <mxCell id="-QCihvRUBk_8zJ_iL8wI-32" value="Par" style="shape=umlFrame;whiteSpace=wrap;html=1;pointerEvents=0;" vertex="1" parent="1">
          <mxGeometry x="60" y="460" width="780" height="120" as="geometry" />
        </mxCell>
        <mxCell id="-QCihvRUBk_8zJ_iL8wI-33" value="Choose one/many/all printers" style="html=1;verticalAlign=bottom;endArrow=block;curved=0;rounded=0;" edge="1" parent="1">
          <mxGeometry relative="1" as="geometry">
            <mxPoint x="135" y="525.87" as="sourcePoint" />
            <mxPoint x="325" y="525.87" as="targetPoint" />
          </mxGeometry>
        </mxCell>
        <mxCell id="-QCihvRUBk_8zJ_iL8wI-34" value="" style="endArrow=none;dashed=1;html=1;rounded=0;exitX=0;exitY=0.498;exitDx=0;exitDy=0;exitPerimeter=0;entryX=1;entryY=0.5;entryDx=0;entryDy=0;entryPerimeter=0;" edge="1" parent="1">
          <mxGeometry width="50" height="50" relative="1" as="geometry">
            <mxPoint x="60" y="501.7599999999999" as="sourcePoint" />
            <mxPoint x="840" y="501.9999999999999" as="targetPoint" />
          </mxGeometry>
        </mxCell>
        <mxCell id="-QCihvRUBk_8zJ_iL8wI-35" value="[Choose History]" style="text;html=1;align=center;verticalAlign=middle;resizable=0;points=[];autosize=1;strokeColor=none;fillColor=none;" vertex="1" parent="1">
          <mxGeometry y="240" width="110" height="30" as="geometry" />
        </mxCell>
        <mxCell id="-QCihvRUBk_8zJ_iL8wI-36" value="[Choose Report]" style="text;html=1;align=center;verticalAlign=middle;resizable=0;points=[];autosize=1;strokeColor=none;fillColor=none;" vertex="1" parent="1">
          <mxGeometry y="755" width="110" height="30" as="geometry" />
        </mxCell>
        <mxCell id="-QCihvRUBk_8zJ_iL8wI-37" value="Click on &quot;Report&quot;" style="html=1;verticalAlign=bottom;endArrow=block;curved=0;rounded=0;" edge="1" parent="1">
          <mxGeometry relative="1" as="geometry">
            <mxPoint x="135" y="783" as="sourcePoint" />
            <mxPoint x="325" y="783" as="targetPoint" />
          </mxGeometry>
        </mxCell>
        <mxCell id="-QCihvRUBk_8zJ_iL8wI-38" value="" style="html=1;points=[[0,0,0,0,5],[0,1,0,0,-5],[1,0,0,0,5],[1,1,0,0,-5]];perimeter=orthogonalPerimeter;outlineConnect=0;targetShapes=umlLifeline;portConstraint=eastwest;newEdgeStyle={&quot;curved&quot;:0,&quot;rounded&quot;:0};" vertex="1" parent="1">
          <mxGeometry x="805" y="799" width="10" height="101" as="geometry" />
        </mxCell>
        <mxCell id="-QCihvRUBk_8zJ_iL8wI-39" value="Alt" style="shape=umlFrame;whiteSpace=wrap;html=1;pointerEvents=0;" vertex="1" parent="1">
          <mxGeometry x="16" y="1190" width="834" height="370" as="geometry" />
        </mxCell>
        <mxCell id="-QCihvRUBk_8zJ_iL8wI-40" value="[Export manually]" style="text;html=1;align=center;verticalAlign=middle;whiteSpace=wrap;rounded=0;fillColor=none;" vertex="1" parent="1">
          <mxGeometry x="19" y="1220" width="102.5" height="30" as="geometry" />
        </mxCell>
        <mxCell id="-QCihvRUBk_8zJ_iL8wI-41" value="Export current report" style="html=1;verticalAlign=bottom;endArrow=block;curved=0;rounded=0;" edge="1" parent="1">
          <mxGeometry relative="1" as="geometry">
            <mxPoint x="135" y="1254" as="sourcePoint" />
            <mxPoint x="325" y="1254" as="targetPoint" />
          </mxGeometry>
        </mxCell>
        <mxCell id="-QCihvRUBk_8zJ_iL8wI-42" value="Send export request" style="html=1;verticalAlign=bottom;endArrow=block;curved=0;rounded=0;entryX=0;entryY=0;entryDx=0;entryDy=5;entryPerimeter=0;" edge="1" parent="1">
          <mxGeometry relative="1" as="geometry">
            <mxPoint x="335" y="1264" as="sourcePoint" />
            <mxPoint x="565" y="1264" as="targetPoint" />
          </mxGeometry>
        </mxCell>
        <mxCell id="-QCihvRUBk_8zJ_iL8wI-43" value="Return report file" style="html=1;verticalAlign=bottom;endArrow=open;dashed=1;endSize=8;curved=0;rounded=0;exitX=0;exitY=1;exitDx=0;exitDy=-5;" edge="1" parent="1">
          <mxGeometry relative="1" as="geometry">
            <mxPoint x="334" y="1335" as="targetPoint" />
            <mxPoint x="564" y="1335" as="sourcePoint" />
          </mxGeometry>
        </mxCell>
        <mxCell id="-QCihvRUBk_8zJ_iL8wI-44" value="" style="endArrow=none;dashed=1;html=1;rounded=0;exitX=-0.001;exitY=0.459;exitDx=0;exitDy=0;exitPerimeter=0;entryX=1.001;entryY=0.46;entryDx=0;entryDy=0;entryPerimeter=0;" edge="1" parent="1" source="-QCihvRUBk_8zJ_iL8wI-39" target="-QCihvRUBk_8zJ_iL8wI-39">
          <mxGeometry width="50" height="50" relative="1" as="geometry">
            <mxPoint x="20" y="1279" as="sourcePoint" />
            <mxPoint x="850" y="1281" as="targetPoint" />
          </mxGeometry>
        </mxCell>
        <mxCell id="-QCihvRUBk_8zJ_iL8wI-45" value="Set date and other options" style="html=1;verticalAlign=bottom;endArrow=block;curved=0;rounded=0;" edge="1" parent="1">
          <mxGeometry relative="1" as="geometry">
            <mxPoint x="135" y="1414" as="sourcePoint" />
            <mxPoint x="325" y="1414" as="targetPoint" />
          </mxGeometry>
        </mxCell>
        <mxCell id="-QCihvRUBk_8zJ_iL8wI-46" value="[Auto generation]" style="text;html=1;align=center;verticalAlign=middle;whiteSpace=wrap;rounded=0;fillColor=none;" vertex="1" parent="1">
          <mxGeometry x="17.5" y="1360" width="102.5" height="30" as="geometry" />
        </mxCell>
        <mxCell id="-QCihvRUBk_8zJ_iL8wI-47" value="Record the configurations" style="html=1;verticalAlign=bottom;endArrow=block;curved=0;rounded=0;entryX=0;entryY=0;entryDx=0;entryDy=5;entryPerimeter=0;" edge="1" parent="1">
          <mxGeometry relative="1" as="geometry">
            <mxPoint x="336" y="1424" as="sourcePoint" />
            <mxPoint x="566" y="1424" as="targetPoint" />
          </mxGeometry>
        </mxCell>
        <mxCell id="-QCihvRUBk_8zJ_iL8wI-48" value="" style="html=1;points=[[0,0,0,0,5],[0,1,0,0,-5],[1,0,0,0,5],[1,1,0,0,-5]];perimeter=orthogonalPerimeter;outlineConnect=0;targetShapes=umlLifeline;portConstraint=eastwest;newEdgeStyle={&quot;curved&quot;:0,&quot;rounded&quot;:0};" vertex="1" parent="1">
          <mxGeometry x="565" y="1419" width="10" height="20" as="geometry" />
        </mxCell>
        <mxCell id="-QCihvRUBk_8zJ_iL8wI-49" value="opt" style="shape=umlFrame;whiteSpace=wrap;html=1;pointerEvents=0;" vertex="1" parent="1">
          <mxGeometry x="470" y="1450" width="360" height="90" as="geometry" />
        </mxCell>
        <mxCell id="-QCihvRUBk_8zJ_iL8wI-51" value="Generate report" style="html=1;verticalAlign=bottom;endArrow=block;curved=0;rounded=0;entryX=0;entryY=0;entryDx=0;entryDy=5;" edge="1" parent="1">
          <mxGeometry relative="1" as="geometry">
            <mxPoint x="575" y="1494.8" as="sourcePoint" />
            <mxPoint x="805" y="1494.8" as="targetPoint" />
            <mxPoint as="offset" />
          </mxGeometry>
        </mxCell>
        <mxCell id="-QCihvRUBk_8zJ_iL8wI-52" value="[At preset time]" style="text;html=1;align=center;verticalAlign=middle;whiteSpace=wrap;rounded=0;fillColor=none;" vertex="1" parent="1">
          <mxGeometry x="466.5" y="1478" width="102.5" height="30" as="geometry" />
        </mxCell>
        <mxCell id="-QCihvRUBk_8zJ_iL8wI-53" value="Opt" style="shape=umlFrame;whiteSpace=wrap;html=1;pointerEvents=0;" vertex="1" parent="1">
          <mxGeometry x="-30" y="1150" width="890" height="420" as="geometry" />
        </mxCell>
        <mxCell id="-QCihvRUBk_8zJ_iL8wI-54" value="[Export report]" style="text;html=1;strokeColor=none;fillColor=none;align=center;verticalAlign=middle;whiteSpace=wrap;rounded=0;" vertex="1" parent="1">
          <mxGeometry x="31" y="1153" width="85" height="30" as="geometry" />
        </mxCell>
        <mxCell id="-QCihvRUBk_8zJ_iL8wI-55" value="" style="endArrow=none;dashed=1;html=1;rounded=0;exitX=-0.002;exitY=0.4;exitDx=0;exitDy=0;exitPerimeter=0;entryX=1;entryY=0.4;entryDx=0;entryDy=0;entryPerimeter=0;" edge="1" parent="1">
          <mxGeometry width="50" height="50" relative="1" as="geometry">
            <mxPoint x="-41.819999999999936" y="745" as="sourcePoint" />
            <mxPoint x="870" y="745" as="targetPoint" />
          </mxGeometry>
        </mxCell>
        <mxCell id="-QCihvRUBk_8zJ_iL8wI-56" value="Loop" style="shape=umlFrame;whiteSpace=wrap;html=1;pointerEvents=0;" vertex="1" parent="1">
          <mxGeometry x="19" y="966" width="830" height="155" as="geometry" />
        </mxCell>
        <mxCell id="-QCihvRUBk_8zJ_iL8wI-57" value="Request necessary information" style="html=1;verticalAlign=bottom;endArrow=block;curved=0;rounded=0;entryX=0;entryY=0;entryDx=0;entryDy=5;" edge="1" parent="1">
          <mxGeometry relative="1" as="geometry">
            <mxPoint x="575" y="803" as="sourcePoint" />
            <mxPoint x="805" y="803" as="targetPoint" />
            <mxPoint as="offset" />
          </mxGeometry>
        </mxCell>
        <mxCell id="-QCihvRUBk_8zJ_iL8wI-58" value="Load &quot;Report&quot; page" style="html=1;verticalAlign=bottom;endArrow=block;curved=0;rounded=0;entryX=0;entryY=0;entryDx=0;entryDy=5;" edge="1" parent="1">
          <mxGeometry relative="1" as="geometry">
            <mxPoint x="335" y="794.0000000000002" as="sourcePoint" />
            <mxPoint x="565" y="794.0000000000002" as="targetPoint" />
          </mxGeometry>
        </mxCell>
        <mxCell id="-QCihvRUBk_8zJ_iL8wI-59" value="Return Report UI" style="html=1;verticalAlign=bottom;endArrow=open;dashed=1;endSize=8;curved=0;rounded=0;exitX=0;exitY=1;exitDx=0;exitDy=-5;" edge="1" parent="1">
          <mxGeometry relative="1" as="geometry">
            <mxPoint x="335" y="903.9999999999998" as="targetPoint" />
            <mxPoint x="565" y="903.9999999999998" as="sourcePoint" />
          </mxGeometry>
        </mxCell>
        <mxCell id="-QCihvRUBk_8zJ_iL8wI-60" value="[View old report]" style="text;html=1;align=center;verticalAlign=middle;resizable=0;points=[];autosize=1;strokeColor=none;fillColor=none;" vertex="1" parent="1">
          <mxGeometry x="23" y="930" width="110" height="30" as="geometry" />
        </mxCell>
        <mxCell id="-QCihvRUBk_8zJ_iL8wI-61" value="Click on an old report" style="html=1;verticalAlign=bottom;endArrow=block;curved=0;rounded=0;" edge="1" parent="1">
          <mxGeometry relative="1" as="geometry">
            <mxPoint x="135" y="985" as="sourcePoint" />
            <mxPoint x="325" y="985" as="targetPoint" />
          </mxGeometry>
        </mxCell>
        <mxCell id="-QCihvRUBk_8zJ_iL8wI-62" value="" style="html=1;points=[[0,0,0,0,5],[0,1,0,0,-5],[1,0,0,0,5],[1,1,0,0,-5]];perimeter=orthogonalPerimeter;outlineConnect=0;targetShapes=umlLifeline;portConstraint=eastwest;newEdgeStyle={&quot;curved&quot;:0,&quot;rounded&quot;:0};" vertex="1" parent="1">
          <mxGeometry x="564" y="990" width="10" height="120" as="geometry" />
        </mxCell>
        <mxCell id="-QCihvRUBk_8zJ_iL8wI-63" value="Load past reports" style="html=1;verticalAlign=bottom;endArrow=block;curved=0;rounded=0;entryX=0;entryY=0;entryDx=0;entryDy=5;" edge="1" parent="1">
          <mxGeometry relative="1" as="geometry">
            <mxPoint x="334" y="995" as="sourcePoint" />
            <mxPoint x="564" y="995" as="targetPoint" />
          </mxGeometry>
        </mxCell>
        <mxCell id="-QCihvRUBk_8zJ_iL8wI-64" value="Return necessary information" style="html=1;verticalAlign=bottom;endArrow=open;dashed=1;endSize=8;curved=0;rounded=0;exitX=0;exitY=1;exitDx=0;exitDy=-5;" edge="1" parent="1">
          <mxGeometry relative="1" as="geometry">
            <mxPoint x="574" y="1095" as="targetPoint" />
            <mxPoint x="804" y="1095" as="sourcePoint" />
          </mxGeometry>
        </mxCell>
        <mxCell id="-QCihvRUBk_8zJ_iL8wI-65" value="" style="html=1;points=[[0,0,0,0,5],[0,1,0,0,-5],[1,0,0,0,5],[1,1,0,0,-5]];perimeter=orthogonalPerimeter;outlineConnect=0;targetShapes=umlLifeline;portConstraint=eastwest;newEdgeStyle={&quot;curved&quot;:0,&quot;rounded&quot;:0};" vertex="1" parent="1">
          <mxGeometry x="804" y="1001" width="10" height="100" as="geometry" />
        </mxCell>
        <mxCell id="-QCihvRUBk_8zJ_iL8wI-66" value="Request necessary information" style="html=1;verticalAlign=bottom;endArrow=block;curved=0;rounded=0;entryX=0;entryY=0;entryDx=0;entryDy=5;" edge="1" parent="1">
          <mxGeometry relative="1" as="geometry">
            <mxPoint x="574" y="1005" as="sourcePoint" />
            <mxPoint x="804" y="1005" as="targetPoint" />
            <mxPoint as="offset" />
          </mxGeometry>
        </mxCell>
        <mxCell id="-QCihvRUBk_8zJ_iL8wI-67" value="Display past report" style="html=1;verticalAlign=bottom;endArrow=open;dashed=1;endSize=8;curved=0;rounded=0;exitX=0;exitY=1;exitDx=0;exitDy=-5;" edge="1" parent="1">
          <mxGeometry relative="1" as="geometry">
            <mxPoint x="335" y="1105" as="targetPoint" />
            <mxPoint x="565" y="1105" as="sourcePoint" />
          </mxGeometry>
        </mxCell>
        <mxCell id="-QCihvRUBk_8zJ_iL8wI-68" value="Opt" style="shape=umlFrame;whiteSpace=wrap;html=1;pointerEvents=0;" vertex="1" parent="1">
          <mxGeometry x="-31" y="931" width="890" height="200" as="geometry" />
        </mxCell>
        <mxCell id="-QCihvRUBk_8zJ_iL8wI-69" value="SPSO" style="text;html=1;strokeColor=none;fillColor=none;align=center;verticalAlign=middle;whiteSpace=wrap;rounded=0;" vertex="1" parent="1">
          <mxGeometry x="100" y="15" width="60" height="30" as="geometry" />
        </mxCell>
        <mxCell id="VbDxs5ij3_md5JxZ6AO3-2" value="Opt" style="shape=umlFrame;whiteSpace=wrap;html=1;pointerEvents=0;" vertex="1" parent="1">
          <mxGeometry x="-30" y="380" width="890" height="350" as="geometry" />
        </mxCell>
        <mxCell id="VbDxs5ij3_md5JxZ6AO3-3" value="[Apply filter]" style="text;html=1;align=center;verticalAlign=middle;resizable=0;points=[];autosize=1;strokeColor=none;fillColor=none;" vertex="1" parent="1">
          <mxGeometry x="31" y="383" width="90" height="30" as="geometry" />
        </mxCell>
        <mxCell id="unqzpW_lwM4cJf-_9Yco-1" value="Apply filters&amp;nbsp;" style="html=1;verticalAlign=bottom;endArrow=block;curved=0;rounded=0;" edge="1" parent="1">
          <mxGeometry relative="1" as="geometry">
            <mxPoint x="133" y="566.58" as="sourcePoint" />
            <mxPoint x="323" y="566.58" as="targetPoint" />
          </mxGeometry>
        </mxCell>
        <mxCell id="9MGp5pa9eNP0oGYp74oy-1" value="" style="endArrow=none;dashed=1;html=1;rounded=0;exitX=0;exitY=0.498;exitDx=0;exitDy=0;exitPerimeter=0;entryX=1;entryY=0.5;entryDx=0;entryDy=0;entryPerimeter=0;" edge="1" parent="1">
          <mxGeometry width="50" height="50" relative="1" as="geometry">
            <mxPoint x="60" y="541.9999999999999" as="sourcePoint" />
            <mxPoint x="840" y="542.2399999999999" as="targetPoint" />
          </mxGeometry>
        </mxCell>
      </root>
    </mxGraphModel>
  </diagram>
  <diagram id="4snUC6AqLhTaiJ_lgZ0z" name="Page-3">
    <mxGraphModel grid="1" page="1" gridSize="10" guides="1" tooltips="1" connect="1" arrows="1" fold="1" pageScale="1" pageWidth="827" pageHeight="1169" math="0" shadow="0">
      <root>
        <mxCell id="0" />
        <mxCell id="1" parent="0" />
        <mxCell id="TUXaK4lOzoW0A9a8E96I-1" value="Printing Log Module" style="swimlane;html=1;childLayout=stackLayout;resizeParent=1;resizeParentMax=0;startSize=20;whiteSpace=wrap;rounded=0;shadow=0;glass=0;swimlaneLine=1;fillStyle=hatch;fillColor=#FFFFFF;" vertex="1" parent="1">
          <mxGeometry x="140" y="890" width="1150" height="770" as="geometry" />
        </mxCell>
        <mxCell id="TUXaK4lOzoW0A9a8E96I-2" value="Student" style="swimlane;html=1;startSize=20;" vertex="1" parent="TUXaK4lOzoW0A9a8E96I-1">
          <mxGeometry y="20" width="260" height="750" as="geometry" />
        </mxCell>
        <mxCell id="TUXaK4lOzoW0A9a8E96I-3" style="edgeStyle=orthogonalEdgeStyle;rounded=0;orthogonalLoop=1;jettySize=auto;html=1;entryX=0.5;entryY=0;entryDx=0;entryDy=0;exitX=0.5;exitY=1;exitDx=0;exitDy=0;endArrow=openThin;endFill=0;" edge="1" parent="TUXaK4lOzoW0A9a8E96I-2" source="TUXaK4lOzoW0A9a8E96I-4" target="TUXaK4lOzoW0A9a8E96I-6">
          <mxGeometry relative="1" as="geometry">
            <mxPoint x="71" y="80" as="sourcePoint" />
          </mxGeometry>
        </mxCell>
        <mxCell id="TUXaK4lOzoW0A9a8E96I-4" value="" style="ellipse;html=1;shape=startState;fillColor=#000000;strokeColor=#000000;" vertex="1" parent="TUXaK4lOzoW0A9a8E96I-2">
          <mxGeometry x="56" y="40" width="30" height="30" as="geometry" />
        </mxCell>
        <mxCell id="TUXaK4lOzoW0A9a8E96I-5" style="edgeStyle=orthogonalEdgeStyle;rounded=0;orthogonalLoop=1;jettySize=auto;html=1;exitX=0.5;exitY=1;exitDx=0;exitDy=0;entryX=0.5;entryY=0;entryDx=0;entryDy=0;endArrow=openThin;endFill=0;" edge="1" parent="TUXaK4lOzoW0A9a8E96I-2" source="TUXaK4lOzoW0A9a8E96I-6" target="TUXaK4lOzoW0A9a8E96I-8">
          <mxGeometry relative="1" as="geometry" />
        </mxCell>
        <mxCell id="TUXaK4lOzoW0A9a8E96I-6" value="Access &quot;Profile&quot;" style="rounded=1;arcSize=10;whiteSpace=wrap;html=1;align=center;" vertex="1" parent="TUXaK4lOzoW0A9a8E96I-2">
          <mxGeometry x="21" y="110" width="100" height="40" as="geometry" />
        </mxCell>
        <mxCell id="TUXaK4lOzoW0A9a8E96I-7" value="&lt;font style=&quot;font-size: 12px;&quot;&gt;View History&lt;br&gt;+ Summary for printed pages&lt;br&gt;&lt;/font&gt;" style="rounded=1;arcSize=10;whiteSpace=wrap;html=1;align=center;" vertex="1" parent="TUXaK4lOzoW0A9a8E96I-2">
          <mxGeometry x="21" y="310" width="100" height="50" as="geometry" />
        </mxCell>
        <mxCell id="TUXaK4lOzoW0A9a8E96I-8" value="Access &quot;History&quot;" style="rounded=1;arcSize=10;whiteSpace=wrap;html=1;align=center;" vertex="1" parent="TUXaK4lOzoW0A9a8E96I-2">
          <mxGeometry x="21" y="190" width="100" height="40" as="geometry" />
        </mxCell>
        <mxCell id="TUXaK4lOzoW0A9a8E96I-9" value="System" style="swimlane;html=1;startSize=20;" vertex="1" parent="TUXaK4lOzoW0A9a8E96I-1">
          <mxGeometry x="260" y="20" width="210" height="750" as="geometry" />
        </mxCell>
        <mxCell id="TUXaK4lOzoW0A9a8E96I-10" value="Access database" style="rounded=1;arcSize=10;whiteSpace=wrap;html=1;align=center;" vertex="1" parent="TUXaK4lOzoW0A9a8E96I-9">
          <mxGeometry x="55" y="110" width="100" height="40" as="geometry" />
        </mxCell>
        <mxCell id="TUXaK4lOzoW0A9a8E96I-11" value="" style="ellipse;html=1;shape=endState;fillColor=#000000;strokeColor=#000000;" vertex="1" parent="TUXaK4lOzoW0A9a8E96I-9">
          <mxGeometry x="100" y="530" width="40" height="40" as="geometry" />
        </mxCell>
        <mxCell id="TUXaK4lOzoW0A9a8E96I-12" value="" style="strokeWidth=2;html=1;shape=mxgraph.flowchart.decision;whiteSpace=wrap;" vertex="1" parent="TUXaK4lOzoW0A9a8E96I-9">
          <mxGeometry x="85" y="191" width="40" height="40" as="geometry" />
        </mxCell>
        <mxCell id="TUXaK4lOzoW0A9a8E96I-13" style="edgeStyle=orthogonalEdgeStyle;rounded=0;orthogonalLoop=1;jettySize=auto;html=1;entryX=0.5;entryY=0;entryDx=0;entryDy=0;entryPerimeter=0;endArrow=openThin;endFill=0;" edge="1" parent="TUXaK4lOzoW0A9a8E96I-9" source="TUXaK4lOzoW0A9a8E96I-10" target="TUXaK4lOzoW0A9a8E96I-12">
          <mxGeometry relative="1" as="geometry" />
        </mxCell>
        <mxCell id="TUXaK4lOzoW0A9a8E96I-14" value="Student" style="text;html=1;align=center;verticalAlign=middle;resizable=0;points=[];autosize=1;strokeColor=none;fillColor=none;" vertex="1" parent="TUXaK4lOzoW0A9a8E96I-9">
          <mxGeometry x="47" y="239" width="60" height="30" as="geometry" />
        </mxCell>
        <mxCell id="TUXaK4lOzoW0A9a8E96I-15" value="SPSO" style="text;html=1;align=center;verticalAlign=middle;resizable=0;points=[];autosize=1;strokeColor=none;fillColor=none;" vertex="1" parent="TUXaK4lOzoW0A9a8E96I-9">
          <mxGeometry x="136" y="188" width="60" height="30" as="geometry" />
        </mxCell>
        <mxCell id="TUXaK4lOzoW0A9a8E96I-16" value="Generate report periodically" style="rounded=1;arcSize=10;whiteSpace=wrap;html=1;align=center;" vertex="1" parent="TUXaK4lOzoW0A9a8E96I-9">
          <mxGeometry x="55" y="295" width="100" height="40" as="geometry" />
        </mxCell>
        <mxCell id="TUXaK4lOzoW0A9a8E96I-17" style="edgeStyle=orthogonalEdgeStyle;rounded=0;orthogonalLoop=1;jettySize=auto;html=1;exitX=0.5;exitY=1;exitDx=0;exitDy=0;entryX=0;entryY=0.5;entryDx=0;entryDy=0;endArrow=openThin;endFill=0;" edge="1" parent="TUXaK4lOzoW0A9a8E96I-1" source="TUXaK4lOzoW0A9a8E96I-7" target="TUXaK4lOzoW0A9a8E96I-11">
          <mxGeometry relative="1" as="geometry" />
        </mxCell>
        <mxCell id="TUXaK4lOzoW0A9a8E96I-18" value="SPSO" style="swimlane;html=1;startSize=20;fontColor=#000000;" vertex="1" parent="TUXaK4lOzoW0A9a8E96I-1">
          <mxGeometry x="470" y="20" width="680" height="750" as="geometry" />
        </mxCell>
        <mxCell id="TUXaK4lOzoW0A9a8E96I-19" value="" style="ellipse;html=1;shape=startState;fillColor=#000000;strokeColor=#000000;" vertex="1" parent="TUXaK4lOzoW0A9a8E96I-18">
          <mxGeometry x="245" y="40" width="30" height="30" as="geometry" />
        </mxCell>
        <mxCell id="TUXaK4lOzoW0A9a8E96I-20" value="Access&amp;nbsp;&quot;History&quot;" style="rounded=1;arcSize=10;whiteSpace=wrap;html=1;align=center;" vertex="1" parent="TUXaK4lOzoW0A9a8E96I-18">
          <mxGeometry x="210" y="110" width="100" height="40" as="geometry" />
        </mxCell>
        <mxCell id="TUXaK4lOzoW0A9a8E96I-21" style="edgeStyle=orthogonalEdgeStyle;rounded=0;orthogonalLoop=1;jettySize=auto;html=1;endArrow=openThin;endFill=0;" edge="1" parent="TUXaK4lOzoW0A9a8E96I-18" source="TUXaK4lOzoW0A9a8E96I-19" target="TUXaK4lOzoW0A9a8E96I-20">
          <mxGeometry relative="1" as="geometry" />
        </mxCell>
        <mxCell id="TUXaK4lOzoW0A9a8E96I-22" value="Select one/some/all student(s)" style="rounded=1;arcSize=10;whiteSpace=wrap;html=1;align=center;" vertex="1" parent="TUXaK4lOzoW0A9a8E96I-18">
          <mxGeometry x="390" y="290" width="100" height="40" as="geometry" />
        </mxCell>
        <mxCell id="TUXaK4lOzoW0A9a8E96I-23" style="edgeStyle=orthogonalEdgeStyle;rounded=0;orthogonalLoop=1;jettySize=auto;html=1;exitX=0.5;exitY=1;exitDx=0;exitDy=0;entryX=0.75;entryY=0.5;entryDx=0;entryDy=0;endArrow=openThin;endFill=0;entryPerimeter=0;" edge="1" parent="TUXaK4lOzoW0A9a8E96I-18" source="TUXaK4lOzoW0A9a8E96I-24" target="TUXaK4lOzoW0A9a8E96I-33">
          <mxGeometry relative="1" as="geometry" />
        </mxCell>
        <mxCell id="TUXaK4lOzoW0A9a8E96I-24" value="Choose one/some/all printer(s)" style="rounded=1;arcSize=10;whiteSpace=wrap;html=1;align=center;" vertex="1" parent="TUXaK4lOzoW0A9a8E96I-18">
          <mxGeometry x="520" y="290" width="100" height="40" as="geometry" />
        </mxCell>
        <mxCell id="TUXaK4lOzoW0A9a8E96I-25" value="View printing history" style="rounded=1;arcSize=10;whiteSpace=wrap;html=1;align=center;" vertex="1" parent="TUXaK4lOzoW0A9a8E96I-18">
          <mxGeometry x="455" y="426.5" width="110" height="40" as="geometry" />
        </mxCell>
        <mxCell id="TUXaK4lOzoW0A9a8E96I-26" value="Set date and other options" style="rounded=1;arcSize=10;whiteSpace=wrap;html=1;align=center;" vertex="1" parent="TUXaK4lOzoW0A9a8E96I-18">
          <mxGeometry x="210" y="290" width="100" height="40" as="geometry" />
        </mxCell>
        <mxCell id="TUXaK4lOzoW0A9a8E96I-27" value="" style="strokeWidth=2;html=1;shape=mxgraph.flowchart.decision;whiteSpace=wrap;" vertex="1" parent="TUXaK4lOzoW0A9a8E96I-18">
          <mxGeometry x="240" y="191" width="40" height="40" as="geometry" />
        </mxCell>
        <mxCell id="TUXaK4lOzoW0A9a8E96I-28" value="" style="edgeStyle=orthogonalEdgeStyle;rounded=0;orthogonalLoop=1;jettySize=auto;html=1;exitX=1;exitY=0.5;exitDx=0;exitDy=0;exitPerimeter=0;entryX=0.497;entryY=0.5;entryDx=0;entryDy=0;endArrow=openThin;endFill=0;entryPerimeter=0;" edge="1" parent="TUXaK4lOzoW0A9a8E96I-18" source="TUXaK4lOzoW0A9a8E96I-27" target="TUXaK4lOzoW0A9a8E96I-30">
          <mxGeometry relative="1" as="geometry">
            <Array as="points" />
            <mxPoint x="1164" y="1400" as="targetPoint" />
            <mxPoint x="930" y="1301" as="sourcePoint" />
          </mxGeometry>
        </mxCell>
        <mxCell id="TUXaK4lOzoW0A9a8E96I-29" value="&lt;font style=&quot;font-size: 12px;&quot;&gt;History&lt;/font&gt;" style="edgeLabel;html=1;align=center;verticalAlign=middle;resizable=0;points=[];fontSize=16;" connectable="0" vertex="1" parent="TUXaK4lOzoW0A9a8E96I-28">
          <mxGeometry x="-0.686" relative="1" as="geometry">
            <mxPoint x="38" y="-1" as="offset" />
          </mxGeometry>
        </mxCell>
        <mxCell id="TUXaK4lOzoW0A9a8E96I-30" value="" style="shape=line;html=1;strokeWidth=6;strokeColor=#000000;fontColor=#000000;" vertex="1" parent="TUXaK4lOzoW0A9a8E96I-18">
          <mxGeometry x="426" y="249" width="165" height="10" as="geometry" />
        </mxCell>
        <mxCell id="TUXaK4lOzoW0A9a8E96I-31" value="" style="endArrow=openThin;html=1;rounded=0;fontSize=12;startSize=8;endSize=8;exitX=0.25;exitY=0.5;exitDx=0;exitDy=0;exitPerimeter=0;entryX=0.5;entryY=0;entryDx=0;entryDy=0;edgeStyle=orthogonalEdgeStyle;endFill=0;" edge="1" parent="TUXaK4lOzoW0A9a8E96I-18" source="TUXaK4lOzoW0A9a8E96I-30" target="TUXaK4lOzoW0A9a8E96I-22">
          <mxGeometry width="50" height="50" relative="1" as="geometry">
            <mxPoint x="356" y="370" as="sourcePoint" />
            <mxPoint x="406" y="320" as="targetPoint" />
          </mxGeometry>
        </mxCell>
        <mxCell id="TUXaK4lOzoW0A9a8E96I-32" value="" style="endArrow=openThin;html=1;rounded=0;fontSize=12;startSize=8;endSize=8;exitX=0.75;exitY=0.5;exitDx=0;exitDy=0;exitPerimeter=0;entryX=0.5;entryY=0;entryDx=0;entryDy=0;edgeStyle=orthogonalEdgeStyle;endFill=0;" edge="1" parent="TUXaK4lOzoW0A9a8E96I-18" source="TUXaK4lOzoW0A9a8E96I-30" target="TUXaK4lOzoW0A9a8E96I-24">
          <mxGeometry width="50" height="50" relative="1" as="geometry">
            <mxPoint x="557" y="292" as="sourcePoint" />
            <mxPoint x="520" y="328" as="targetPoint" />
          </mxGeometry>
        </mxCell>
        <mxCell id="TUXaK4lOzoW0A9a8E96I-33" value="" style="shape=line;html=1;strokeWidth=6;strokeColor=#000000;fontColor=#000000;" vertex="1" parent="TUXaK4lOzoW0A9a8E96I-18">
          <mxGeometry x="427.5" y="380" width="165" height="10" as="geometry" />
        </mxCell>
        <mxCell id="TUXaK4lOzoW0A9a8E96I-34" style="edgeStyle=orthogonalEdgeStyle;rounded=0;orthogonalLoop=1;jettySize=auto;html=1;exitX=0.502;exitY=0.496;exitDx=0;exitDy=0;entryX=0.5;entryY=0;entryDx=0;entryDy=0;endArrow=openThin;endFill=0;exitPerimeter=0;" edge="1" parent="TUXaK4lOzoW0A9a8E96I-18" source="TUXaK4lOzoW0A9a8E96I-33" target="TUXaK4lOzoW0A9a8E96I-25">
          <mxGeometry relative="1" as="geometry">
            <mxPoint x="580" y="340" as="sourcePoint" />
            <mxPoint x="561" y="395" as="targetPoint" />
          </mxGeometry>
        </mxCell>
        <mxCell id="TUXaK4lOzoW0A9a8E96I-35" style="edgeStyle=orthogonalEdgeStyle;rounded=0;orthogonalLoop=1;jettySize=auto;html=1;exitX=0.5;exitY=1;exitDx=0;exitDy=0;entryX=0.25;entryY=0.5;entryDx=0;entryDy=0;endArrow=openThin;endFill=0;entryPerimeter=0;" edge="1" parent="TUXaK4lOzoW0A9a8E96I-18" source="TUXaK4lOzoW0A9a8E96I-22" target="TUXaK4lOzoW0A9a8E96I-33">
          <mxGeometry relative="1" as="geometry">
            <mxPoint x="470" y="338" as="sourcePoint" />
            <mxPoint x="470" y="380" as="targetPoint" />
          </mxGeometry>
        </mxCell>
        <mxCell id="TUXaK4lOzoW0A9a8E96I-36" value="" style="endArrow=openThin;html=1;rounded=0;labelBackgroundColor=default;strokeColor=default;align=center;verticalAlign=middle;fontFamily=Helvetica;fontSize=12;fontColor=default;startSize=6;endSize=6;shape=connector;edgeStyle=orthogonalEdgeStyle;endFill=0;exitX=0.5;exitY=1;exitDx=0;exitDy=0;exitPerimeter=0;entryX=0.5;entryY=0;entryDx=0;entryDy=0;" edge="1" parent="TUXaK4lOzoW0A9a8E96I-18" source="TUXaK4lOzoW0A9a8E96I-27" target="TUXaK4lOzoW0A9a8E96I-26">
          <mxGeometry width="50" height="50" relative="1" as="geometry">
            <mxPoint x="275" y="546.5" as="sourcePoint" />
            <mxPoint x="260" y="360" as="targetPoint" />
          </mxGeometry>
        </mxCell>
        <mxCell id="TUXaK4lOzoW0A9a8E96I-37" style="edgeStyle=orthogonalEdgeStyle;shape=connector;rounded=0;orthogonalLoop=1;jettySize=auto;html=1;entryX=0.5;entryY=0;entryDx=0;entryDy=0;labelBackgroundColor=default;strokeColor=default;align=center;verticalAlign=middle;fontFamily=Helvetica;fontSize=12;fontColor=default;endArrow=openThin;endFill=0;startSize=6;endSize=6;exitX=0.496;exitY=0.503;exitDx=0;exitDy=0;exitPerimeter=0;" edge="1" parent="TUXaK4lOzoW0A9a8E96I-18" source="TUXaK4lOzoW0A9a8E96I-38" target="TUXaK4lOzoW0A9a8E96I-40">
          <mxGeometry relative="1" as="geometry" />
        </mxCell>
        <mxCell id="TUXaK4lOzoW0A9a8E96I-38" value="" style="shape=line;html=1;strokeWidth=6;strokeColor=#000000;fontColor=#000000;" vertex="1" parent="TUXaK4lOzoW0A9a8E96I-18">
          <mxGeometry x="136" y="380" width="165" height="10" as="geometry" />
        </mxCell>
        <mxCell id="TUXaK4lOzoW0A9a8E96I-39" value="" style="endArrow=openThin;html=1;rounded=0;labelBackgroundColor=default;strokeColor=default;align=center;verticalAlign=middle;fontFamily=Helvetica;fontSize=12;fontColor=default;startSize=6;endSize=6;shape=connector;exitX=0.5;exitY=1;exitDx=0;exitDy=0;entryX=0.75;entryY=0.5;entryDx=0;entryDy=0;entryPerimeter=0;endFill=0;" edge="1" parent="TUXaK4lOzoW0A9a8E96I-18" source="TUXaK4lOzoW0A9a8E96I-26" target="TUXaK4lOzoW0A9a8E96I-38">
          <mxGeometry width="50" height="50" relative="1" as="geometry">
            <mxPoint x="90" y="440" as="sourcePoint" />
            <mxPoint x="270" y="410" as="targetPoint" />
            <Array as="points" />
          </mxGeometry>
        </mxCell>
        <mxCell id="TUXaK4lOzoW0A9a8E96I-40" value="View report" style="rounded=1;arcSize=10;whiteSpace=wrap;html=1;align=center;" vertex="1" parent="TUXaK4lOzoW0A9a8E96I-18">
          <mxGeometry x="163.5" y="426.5" width="110" height="40" as="geometry" />
        </mxCell>
        <mxCell id="TUXaK4lOzoW0A9a8E96I-41" value="" style="strokeWidth=2;html=1;shape=mxgraph.flowchart.decision;whiteSpace=wrap;" vertex="1" parent="TUXaK4lOzoW0A9a8E96I-18">
          <mxGeometry x="350" y="490" width="40" height="40" as="geometry" />
        </mxCell>
        <mxCell id="TUXaK4lOzoW0A9a8E96I-42" style="edgeStyle=orthogonalEdgeStyle;shape=connector;rounded=0;orthogonalLoop=1;jettySize=auto;html=1;exitX=0.5;exitY=1;exitDx=0;exitDy=0;entryX=0;entryY=0.5;entryDx=0;entryDy=0;entryPerimeter=0;labelBackgroundColor=default;strokeColor=default;align=center;verticalAlign=middle;fontFamily=Helvetica;fontSize=12;fontColor=default;endArrow=openThin;endFill=0;startSize=6;endSize=6;" edge="1" parent="TUXaK4lOzoW0A9a8E96I-18" source="TUXaK4lOzoW0A9a8E96I-40" target="TUXaK4lOzoW0A9a8E96I-41">
          <mxGeometry relative="1" as="geometry" />
        </mxCell>
        <mxCell id="TUXaK4lOzoW0A9a8E96I-43" style="edgeStyle=orthogonalEdgeStyle;shape=connector;rounded=0;orthogonalLoop=1;jettySize=auto;html=1;exitX=0.5;exitY=1;exitDx=0;exitDy=0;entryX=1;entryY=0.5;entryDx=0;entryDy=0;entryPerimeter=0;labelBackgroundColor=default;strokeColor=default;align=center;verticalAlign=middle;fontFamily=Helvetica;fontSize=12;fontColor=default;endArrow=openThin;endFill=0;startSize=6;endSize=6;" edge="1" parent="TUXaK4lOzoW0A9a8E96I-18" source="TUXaK4lOzoW0A9a8E96I-25" target="TUXaK4lOzoW0A9a8E96I-41">
          <mxGeometry relative="1" as="geometry" />
        </mxCell>
        <mxCell id="TUXaK4lOzoW0A9a8E96I-44" value="&lt;font style=&quot;font-size: 12px;&quot;&gt;Report&lt;/font&gt;" style="edgeLabel;html=1;align=center;verticalAlign=middle;resizable=0;points=[];fontSize=16;" connectable="0" vertex="1" parent="TUXaK4lOzoW0A9a8E96I-18">
          <mxGeometry x="259.9986206896549" y="254" as="geometry">
            <mxPoint x="-3" y="-1" as="offset" />
          </mxGeometry>
        </mxCell>
        <mxCell id="TUXaK4lOzoW0A9a8E96I-45" style="edgeStyle=orthogonalEdgeStyle;rounded=0;orthogonalLoop=1;jettySize=auto;html=1;endArrow=openThin;endFill=0;" edge="1" parent="TUXaK4lOzoW0A9a8E96I-1" source="TUXaK4lOzoW0A9a8E96I-20" target="TUXaK4lOzoW0A9a8E96I-10">
          <mxGeometry relative="1" as="geometry" />
        </mxCell>
        <mxCell id="TUXaK4lOzoW0A9a8E96I-46" style="edgeStyle=orthogonalEdgeStyle;rounded=0;orthogonalLoop=1;jettySize=auto;html=1;entryX=0;entryY=0.5;entryDx=0;entryDy=0;endArrow=openThin;endFill=0;" edge="1" parent="TUXaK4lOzoW0A9a8E96I-1" source="TUXaK4lOzoW0A9a8E96I-8" target="TUXaK4lOzoW0A9a8E96I-10">
          <mxGeometry relative="1" as="geometry" />
        </mxCell>
        <mxCell id="TUXaK4lOzoW0A9a8E96I-47" style="edgeStyle=orthogonalEdgeStyle;rounded=0;orthogonalLoop=1;jettySize=auto;html=1;entryX=0.5;entryY=0;entryDx=0;entryDy=0;endArrow=openThin;endFill=0;" edge="1" parent="TUXaK4lOzoW0A9a8E96I-1" source="TUXaK4lOzoW0A9a8E96I-12" target="TUXaK4lOzoW0A9a8E96I-7">
          <mxGeometry relative="1" as="geometry">
            <Array as="points">
              <mxPoint x="365" y="286" />
              <mxPoint x="71" y="286" />
            </Array>
            <mxPoint x="71" y="346" as="targetPoint" />
          </mxGeometry>
        </mxCell>
        <mxCell id="TUXaK4lOzoW0A9a8E96I-48" style="edgeStyle=none;curved=1;rounded=0;orthogonalLoop=1;jettySize=auto;html=1;entryX=0;entryY=0.5;entryDx=0;entryDy=0;entryPerimeter=0;fontSize=12;startSize=8;endSize=8;endArrow=openThin;endFill=0;" edge="1" parent="TUXaK4lOzoW0A9a8E96I-1" source="TUXaK4lOzoW0A9a8E96I-12" target="TUXaK4lOzoW0A9a8E96I-27">
          <mxGeometry relative="1" as="geometry" />
        </mxCell>
        <mxCell id="TUXaK4lOzoW0A9a8E96I-49" value="" style="endArrow=openThin;html=1;rounded=0;labelBackgroundColor=default;strokeColor=default;align=center;verticalAlign=middle;fontFamily=Helvetica;fontSize=12;fontColor=default;startSize=6;endSize=6;shape=connector;exitX=1;exitY=0.5;exitDx=0;exitDy=0;entryX=0.25;entryY=0.5;entryDx=0;entryDy=0;entryPerimeter=0;endFill=0;" edge="1" parent="TUXaK4lOzoW0A9a8E96I-1" source="TUXaK4lOzoW0A9a8E96I-16" target="TUXaK4lOzoW0A9a8E96I-38">
          <mxGeometry width="50" height="50" relative="1" as="geometry">
            <mxPoint x="885" y="630" as="sourcePoint" />
            <mxPoint x="935" y="580" as="targetPoint" />
            <Array as="points">
              <mxPoint x="647" y="335" />
            </Array>
          </mxGeometry>
        </mxCell>
        <mxCell id="TUXaK4lOzoW0A9a8E96I-50" style="edgeStyle=orthogonalEdgeStyle;rounded=0;orthogonalLoop=1;jettySize=auto;html=1;entryX=1;entryY=0.5;entryDx=0;entryDy=0;endArrow=openThin;endFill=0;exitX=0.5;exitY=1;exitDx=0;exitDy=0;exitPerimeter=0;" edge="1" parent="TUXaK4lOzoW0A9a8E96I-1" source="TUXaK4lOzoW0A9a8E96I-41" target="TUXaK4lOzoW0A9a8E96I-11">
          <mxGeometry relative="1" as="geometry">
            <Array as="points">
              <mxPoint x="840" y="570" />
            </Array>
            <mxPoint x="735" y="666" as="sourcePoint" />
          </mxGeometry>
        </mxCell>
      </root>
    </mxGraphModel>
  </diagram>
</mxfile>
